<svg data-name="Layer 1" id="Layer_1" viewBox="0 0 1500 1000" xmlns="http://www.w3.org/2000/svg">
  <defs>
    <style>.cls-1, .cls-46, .cls-63, .cls-64, .cls-65, .cls-66, .cls-71, .cls-81, .cls-82, .cls-83, .cls-84, .cls-85, .cls-86, .cls-98 {
      fill: none;
    }

    .cls-2, .cls-29, .cls-47, .cls-94 {
      fill: #c6363c;
    }

    .cls-10, .cls-11, .cls-12, .cls-13, .cls-14, .cls-15, .cls-16, .cls-17, .cls-18, .cls-19, .cls-2, .cls-20, .cls-21, .cls-22, .cls-23, .cls-24, .cls-25, .cls-26, .cls-27, .cls-28, .cls-29, .cls-30, .cls-31, .cls-32, .cls-33, .cls-34, .cls-35, .cls-36, .cls-37, .cls-38, .cls-39, .cls-4, .cls-40, .cls-41, .cls-42, .cls-43, .cls-44, .cls-45, .cls-48, .cls-49, .cls-50, .cls-51, .cls-52, .cls-53, .cls-54, .cls-55, .cls-56, .cls-57, .cls-58, .cls-59, .cls-6, .cls-60, .cls-61, .cls-62, .cls-67, .cls-68, .cls-69, .cls-7, .cls-70, .cls-72, .cls-73, .cls-74, .cls-75, .cls-76, .cls-77, .cls-78, .cls-79, .cls-8, .cls-80, .cls-87, .cls-88, .cls-89, .cls-9, .cls-90, .cls-91, .cls-92, .cls-93, .cls-96, .cls-97 {
      fill-rule: evenodd;
    }

    .cls-3 {
      clip-path: url(#clip-path);
    }

    .cls-27, .cls-30, .cls-35, .cls-36, .cls-4, .cls-42 {
      fill: #0c4076;
    }

    .cls-5 {
      clip-path: url(#clip-path-2);
    }

    .cls-14, .cls-15, .cls-18, .cls-20, .cls-21, .cls-25, .cls-38, .cls-48, .cls-49, .cls-50, .cls-51, .cls-52, .cls-53, .cls-54, .cls-55, .cls-56, .cls-57, .cls-6, .cls-68, .cls-69, .cls-70, .cls-72, .cls-73, .cls-74, .cls-75, .cls-76, .cls-77, .cls-79, .cls-88, .cls-89, .cls-90, .cls-91, .cls-92, .cls-93, .cls-95, .cls-96, .cls-97 {
      fill: #fff;
    }

    .cls-10, .cls-12, .cls-13, .cls-16, .cls-17, .cls-19, .cls-22, .cls-23, .cls-24, .cls-26, .cls-28, .cls-31, .cls-32, .cls-33, .cls-34, .cls-37, .cls-39, .cls-40, .cls-41, .cls-43, .cls-44, .cls-45, .cls-58, .cls-59, .cls-60, .cls-61, .cls-62, .cls-67, .cls-7, .cls-78, .cls-8, .cls-80, .cls-87, .cls-9 {
      fill: #edb92e;
    }

    .cls-10, .cls-12, .cls-13, .cls-14, .cls-15, .cls-16, .cls-17, .cls-18, .cls-19, .cls-20, .cls-21, .cls-22, .cls-23, .cls-24, .cls-25, .cls-26, .cls-27, .cls-28, .cls-29, .cls-30, .cls-31, .cls-32, .cls-33, .cls-34, .cls-35, .cls-36, .cls-37, .cls-38, .cls-39, .cls-40, .cls-41, .cls-42, .cls-43, .cls-44, .cls-45, .cls-46, .cls-48, .cls-49, .cls-50, .cls-51, .cls-52, .cls-53, .cls-54, .cls-55, .cls-56, .cls-57, .cls-58, .cls-59, .cls-60, .cls-61, .cls-62, .cls-63, .cls-64, .cls-65, .cls-66, .cls-67, .cls-68, .cls-69, .cls-7, .cls-70, .cls-71, .cls-72, .cls-73, .cls-74, .cls-75, .cls-76, .cls-77, .cls-78, .cls-79, .cls-8, .cls-80, .cls-81, .cls-82, .cls-83, .cls-84, .cls-85, .cls-86, .cls-87, .cls-88, .cls-89, .cls-9, .cls-90, .cls-91, .cls-92, .cls-93, .cls-94, .cls-95, .cls-96, .cls-97, .cls-98 {
      stroke: #21231e;
    }

    .cls-7 {
      stroke-miterlimit: 23.11;
      stroke-width: 0.67px;
    }

    .cls-15, .cls-21, .cls-26, .cls-30, .cls-37, .cls-71, .cls-8 {
      stroke-miterlimit: 22.93;
    }

    .cls-21, .cls-30, .cls-71, .cls-79, .cls-8, .cls-85, .cls-9 {
      stroke-width: 0.67px;
    }

    .cls-22, .cls-32, .cls-39, .cls-58, .cls-67, .cls-68, .cls-70, .cls-77, .cls-79, .cls-85, .cls-87, .cls-88, .cls-9, .cls-91, .cls-93, .cls-96, .cls-97 {
      stroke-linejoin: round;
    }

    .cls-10, .cls-12, .cls-23, .cls-24, .cls-27, .cls-29, .cls-31, .cls-33, .cls-34, .cls-40, .cls-43, .cls-44, .cls-45, .cls-46, .cls-47, .cls-48, .cls-49, .cls-50, .cls-52, .cls-53, .cls-54, .cls-55, .cls-56, .cls-57, .cls-60, .cls-61, .cls-62, .cls-64, .cls-65, .cls-66, .cls-69, .cls-72, .cls-73, .cls-74, .cls-75, .cls-76, .cls-78, .cls-80, .cls-81, .cls-86, .cls-94, .cls-95, .cls-98 {
      stroke-miterlimit: 22.93;
    }

    .cls-10 {
      stroke-width: 0.67px;
    }

    .cls-11 {
      fill: #21231e;
    }

    .cls-12, .cls-95 {
      stroke-width: 0.67px;
    }

    .cls-13 {
      stroke-miterlimit: 24.83;
      stroke-width: 0.67px;
    }

    .cls-14, .cls-16, .cls-25, .cls-36, .cls-38, .cls-41, .cls-42 {
      stroke-miterlimit: 22.93;
    }

    .cls-14 {
      stroke-width: 0.67px;
    }

    .cls-15 {
      stroke-width: 0.67px;
    }

    .cls-16 {
      stroke-width: 0.67px;
    }

    .cls-17 {
      stroke-miterlimit: 22.96;
      stroke-width: 0.67px;
    }

    .cls-18 {
      stroke-miterlimit: 22.98;
      stroke-width: 0.67px;
    }

    .cls-19 {
      stroke-miterlimit: 24.04;
      stroke-width: 0.67px;
    }

    .cls-20 {
      stroke-miterlimit: 24.06;
      stroke-width: 0.67px;
    }

    .cls-22 {
      stroke-width: 0.67px;
    }

    .cls-23 {
      stroke-width: 0.67px;
    }

    .cls-24 {
      stroke-width: 0.67px;
    }

    .cls-25 {
      stroke-width: 0.67px;
    }

    .cls-26 {
      stroke-width: 0.67px;
    }

    .cls-27, .cls-69, .cls-70, .cls-86 {
      stroke-width: 0.67px;
    }

    .cls-28 {
      stroke-miterlimit: 22.97;
      stroke-width: 0.67px;
    }

    .cls-29 {
      stroke-width: 0.67px;
    }

    .cls-31, .cls-32 {
      stroke-width: 0.67px;
    }

    .cls-33 {
      stroke-width: 0.66px;
    }

    .cls-34 {
      stroke-width: 0.66px;
    }

    .cls-35 {
      stroke-miterlimit: 23.19;
      stroke-width: 0.67px;
    }

    .cls-36 {
      stroke-width: 0.67px;
    }

    .cls-37 {
      stroke-width: 0.67px;
    }

    .cls-38 {
      stroke-width: 0.67px;
    }

    .cls-39 {
      stroke-width: 0.67px;
    }

    .cls-40 {
      stroke-width: 0.67px;
    }

    .cls-41 {
      stroke-width: 0.67px;
    }

    .cls-42 {
      stroke-width: 0.67px;
    }

    .cls-43 {
      stroke-width: 0.68px;
    }

    .cls-44 {
      stroke-width: 0.63px;
    }

    .cls-45 {
      stroke-width: 0.68px;
    }

    .cls-46, .cls-71, .cls-77, .cls-81, .cls-82, .cls-83, .cls-85, .cls-86 {
      stroke-linecap: round;
    }

    .cls-46 {
      stroke-width: 0.67px;
    }

    .cls-47 {
      stroke: #fff;
    }

    .cls-47, .cls-94, .cls-98 {
      stroke-width: 1.33px;
    }

    .cls-48 {
      stroke-width: 0.67px;
    }

    .cls-49 {
      stroke-width: 0.64px;
    }

    .cls-50 {
      stroke-width: 0.61px;
    }

    .cls-51 {
      stroke-miterlimit: 23.93;
      stroke-width: 0.67px;
    }

    .cls-52 {
      stroke-width: 0.66px;
    }

    .cls-53 {
      stroke-width: 0.67px;
    }

    .cls-54 {
      stroke-width: 0.65px;
    }

    .cls-55 {
      stroke-width: 0.66px;
    }

    .cls-56 {
      stroke-width: 0.66px;
    }

    .cls-57 {
      stroke-width: 0.67px;
    }

    .cls-58 {
      stroke-width: 0.66px;
    }

    .cls-59 {
      stroke-miterlimit: 23.18;
      stroke-width: 0.67px;
    }

    .cls-60 {
      stroke-width: 0.65px;
    }

    .cls-61 {
      stroke-width: 0.66px;
    }

    .cls-62 {
      stroke-width: 0.61px;
    }

    .cls-63 {
      stroke-miterlimit: 31.03;
      stroke-width: 0.67px;
    }

    .cls-64 {
      stroke-width: 0.67px;
    }

    .cls-65 {
      stroke-width: 0.68px;
    }

    .cls-66 {
      stroke-width: 0.67px;
    }

    .cls-67 {
      stroke-width: 0.67px;
    }

    .cls-68 {
      stroke-width: 0.67px;
    }

    .cls-72 {
      stroke-width: 0.59px;
    }

    .cls-73 {
      stroke-width: 0.67px;
    }

    .cls-74 {
      stroke-width: 0.66px;
    }

    .cls-75 {
      stroke-width: 0.67px;
    }

    .cls-76 {
      stroke-width: 0.67px;
    }

    .cls-77 {
      stroke-width: 0.67px;
    }

    .cls-78 {
      stroke-width: 0.66px;
    }

    .cls-80, .cls-87 {
      stroke-width: 0.67px;
    }

    .cls-81 {
      stroke-width: 0.67px;
    }

    .cls-82 {
      stroke-miterlimit: 23.68;
      stroke-width: 0.89px;
    }

    .cls-83 {
      stroke-miterlimit: 24.13;
      stroke-width: 0.67px;
    }

    .cls-84 {
      stroke-miterlimit: 29.6;
      stroke-width: 0.89px;
    }

    .cls-88 {
      stroke-width: 0.67px;
    }

    .cls-89 {
      stroke-miterlimit: 25.36;
      stroke-width: 0.67px;
    }

    .cls-90 {
      stroke-miterlimit: 23.37;
      stroke-width: 0.67px;
    }

    .cls-91 {
      stroke-width: 0.67px;
    }

    .cls-92 {
      stroke-miterlimit: 24.73;
      stroke-width: 0.67px;
    }

    .cls-93 {
      stroke-width: 0.67px;
    }

    .cls-96 {
      stroke-width: 0.68px;
    }

    .cls-97 {
      stroke-width: 0.67px;
    }</style>
    <clipPath id="clip-path">
      <rect class="cls-1" height="667.07" width="1500" y="332.98"/>
    </clipPath>
    <clipPath id="clip-path-2">
      <rect class="cls-1" height="334.43" width="1500" y="665.53"/>
    </clipPath>
  </defs>
  <g id="g6907">
    <path class="cls-2" d="M0,0H1500v1000H0Z" id="path822"/>
    <g class="cls-3">
      <g id="g828">
        <path class="cls-4" d="M0,332.47H1500V999.93H0Z" id="path826"/>
      </g>
    </g>
    <g class="cls-5">
      <g id="g832">
        <path class="cls-6" d="M0,664.1H1500V999.93H0Z" id="path830"/>
      </g>
    </g>
    <g id="g6512">
      <g id="g1244">
        <g id="g850">
          <path class="cls-7"
                d="M666.64,237.91c2.09-4.53.41-10.84-.27-12.26-.35-.72.68-2.31,1.12-2.94,14.19-19.94,14.43-21.71,4.65-29.19-8.82-6.74-28.76-13.3-43-17.71-3-2.25-4.86-5.31-7.55-7.84,27.41,2,57.11,13,72.09,25.92,7.91,6.83-1.71,20.62-13.51,41.59-7.28,5.22-10.7,7.65-13.5,2.43Z"
                id="path834"/>
          <g id="g846">
            <path class="cls-8"
                  d="M671,239.49a37.25,37.25,0,0,0,1.37-5.14,17.08,17.08,0,0,0-.65-8.9,139.7,139.7,0,0,0,9.58-14.54c1.89-3.55,3.36-7.49,2.24-11.53-1.18-4.31-4.93-7.24-8.33-9.83a70.86,70.86,0,0,0-15-8.15c-12.28-5.06-22.05-7.53-29.21-7.75l4.54,4.18c13.32,4.28,29,9.91,36.59,15.69,9.79,7.47,9.54,9.25-4.65,29.2-.44.62-1.46,2.21-1.12,2.93.68,1.43,1.94,8-.15,12.53,1.23,2.29,3,1.1,4.75,1.31Z"
                  id="path836"/>
            <path class="cls-8"
                  d="M551.08,150.69c-.12-2.53,0-2.09.43,1.8a1.74,1.74,0,0,1,1.59-1.13c1.16,0,1.85,1.77,2,5.7-.06,1-.14,2-.21,3,36.35-.8,57.9,4.68,63.46,15.19,4.57,8.66-3.2,23-14.93,39.34-1.42,2-1.38,1.82,0,3.45,2,2.36,4.12,6.36,2.52,9.86,7.1,3.89,15.57,4.84,22.94,1.63,1.24-3.24,3.89-4.78,6-6.24.44-.3,2-1.07,2.18-1.58,3.87-12.38,7.77-23.83,11.1-34.5,10.5-33.48-82.71-36.55-97.07-36.53Z"
                  id="path838"/>
            <g id="g844">
              <path class="cls-9"
                    d="M647.07,294.74c3.6-7.2,7.37-14.27,12.42-20.39-12.92,9.54-19.71,8.11-20.65-4.31a9.27,9.27,0,0,0-2.84-.27q-14.79,22.88-28.76-6.34c-12.69,20-23.58,19.66-32.13-1.23-14.63,18.26-27,18.31-37,.39v-2.27c.57.25.18.33-1.13.14l-.22-.41c-.39.08-.75.15-1.08.2l-1.08-.2-.21.41c-1.31.18-1.7.11-1.14-.14v2.28c-10,17.91-22.35,17.86-37-.4-8.56,20.89-19.45,21.24-32.13,1.23q-14,29.22-28.76,6.34a9.23,9.23,0,0,0-2.84.27c-.94,12.42-7.74,13.85-20.65,4.31,5,6.13,8.82,13.19,12.42,20.39,37.21-1.54,74.3-3.47,111.38-5.41,37.08,1.94,74.16,3.87,111.37,5.41Z"
                    id="path840"/>
              <path class="cls-9"
                    d="M662.33,264.77l-4.06-.68c-7.77,19-14.74,19.44-16.06,1.39,1.74-.63,1-3.64,3-2.44,1,.63,2.35-1.16,1.49-2.16-2.2-1.62-4.16-1.36-6.09.44-.91-2.89-3.13-4.23-5.91-3-1.2.53-.79,2.69.42,2.57,1.94-.2,1.16,1.81,1.77,3.17-13.8,18-20.85,15.84-19.13-7.78a79,79,0,0,1-10.53-2.57c-12.7,25.47-21.73,26.57-29,3.71,1.57-1.17,1.13-4.1,3.41-3.15,1.3.53,2.38-1.74,1.23-2.72-2.68-2.25-5.58-1.49-7.53,1.4-1.56-3.11-4.34-4.24-7.27-2.34-1.27.82-.49,3.21.86,2.85,2.59-.69,1.43,2.7,3.39,3.86-5.61,21.49-33.94,22.94-29.31-8.88l-7.28.27-7.29-.27c4.63,31.82-23.69,30.37-29.3,8.88,2-1.16.79-4.55,3.38-3.86,1.34.36,2.13-2,.86-2.85-2.93-1.9-5.71-.77-7.27,2.34-1.95-2.89-4.85-3.65-7.52-1.4-1.16,1-.07,3.25,1.22,2.72,2.29-.95,1.84,2,3.41,3.15-7.31,22.86-16.35,21.76-29-3.71a80.14,80.14,0,0,1-10.53,2.57c1.72,23.62-5.34,25.75-19.13,7.78.6-1.36-.17-3.37,1.76-3.17,1.21.12,1.62-2,.42-2.57-2.77-1.21-5,.13-5.9,3-1.93-1.8-3.89-2.06-6.09-.44-.86,1,.45,2.79,1.48,2.16,2-1.2,1.28,1.81,3,2.44-1.31,18-8.29,17.58-16.06-1.39l-4.05.68a20.2,20.2,0,0,0,4.18,12.68c11.67,14.79,20.34,11.44,20.66-5.13,15.27,17.89,26.81,15.62,28.88-3.24,12.85,23.8,33.46,12.42,33.89-2,5.66,21,37,20.83,39-3.29,2,24.12,33.35,24.27,39,3.29.43,14.44,21,25.82,33.88,2,2.08,18.86,13.62,21.13,28.89,3.24.32,16.57,9,19.92,20.66,5.13a20.14,20.14,0,0,0,4.18-12.68Z"
                    id="path842"/>
            </g>
          </g>
          <path class="cls-10"
                d="M561.81,240.56c-1.72-1.08-2.06-.79-2.61-1.49-.72-.91-.72-2.41-.5-3.83.9-5.77-2.57-5-6.47-2.41-1.94,1.27-3.91,4.23-5.59,5.78s-3.07,1.67-3.48,2.29c0,2.2-.07,4.12,0,5h0c0,.86,0,2.78,0,5,.41.61,1.81.74,3.48,2.29s3.65,4.5,5.59,5.77c3.9,2.55,7.37,3.36,6.47-2.41-.22-1.42-.22-2.91.5-3.83.55-.7.89-.41,2.61-1.49a7.75,7.75,0,0,0,2.51-2.45c.56-.91.25-1.89.25-2.87s.31-2-.25-2.88A7.75,7.75,0,0,0,561.81,240.56Z"
                id="path848"/>
        </g>
        <path class="cls-11" d="M543,246.77l.15,1a19.16,19.16,0,0,1,10.5,4.75c-2-2.91-6.18-5.07-10.65-5.72"
              id="path852"/>
        <path class="cls-11" d="M543,245l.15-1a19.24,19.24,0,0,0,10.5-4.76c-2,2.91-6.18,5.08-10.65,5.73" id="path854"/>
        <g id="g1042">
          <g id="g872">
            <path class="cls-12"
                  d="M558.76,232.61a11.07,11.07,0,0,0-3.78,2.18c-1.76,1.69-.62,4.5,1.65,7.23a7.56,7.56,0,0,1,0,7.72c-2.27,2.72-3.41,5.53-1.65,7.23a11.23,11.23,0,0,0,3.78,2.18,8.52,8.52,0,0,0-.07-2.63,5.17,5.17,0,0,1,.5-3.82c.55-.71.89-.42,2.61-1.5a7.65,7.65,0,0,0,2.51-2.45c.56-.91.26-1.89.26-2.88s.3-2-.26-2.87a7.65,7.65,0,0,0-2.51-2.45c-1.72-1.07-2.06-.79-2.61-1.49a5.18,5.18,0,0,1-.5-3.83,8.45,8.45,0,0,0,.07-2.62Z"
                  id="path856"/>
            <path class="cls-7"
                  d="M404.75,237.91c-2.09-4.52-.41-10.83.28-12.26.34-.72-.68-2.31-1.13-2.93-14.19-19.95-14.43-21.72-4.65-29.19,8.83-6.75,28.76-13.3,43-17.72,3-2.25,4.86-5.31,7.56-7.83-27.4,2-57.1,13-72.09,25.92-7.91,6.83,1.71,20.61,13.51,41.58,7.29,5.22,10.71,7.66,13.5,2.43Z"
                  id="path858"/>
            <path class="cls-8"
                  d="M400.44,239.49a35.89,35.89,0,0,1-1.37-5.14,17.08,17.08,0,0,1,.64-8.9,141.32,141.32,0,0,1-9.58-14.54c-1.88-3.55-3.35-7.49-2.24-11.53,1.19-4.31,4.94-7.24,8.34-9.83a70.37,70.37,0,0,1,15-8.15c12.28-5.06,22.05-7.53,29.2-7.75l-4.54,4.18c-13.31,4.28-29,9.91-36.59,15.69-9.78,7.47-9.53,9.25,4.65,29.2.45.62,1.47,2.21,1.12,2.93-.67,1.43-1.93,8,.15,12.53-1.22,2.29-3,1.1-4.75,1.31Z"
                  id="path860"/>
            <path class="cls-8"
                  d="M520.31,150.69c.13-2.53,0-2.09-.42,1.8a1.77,1.77,0,0,0-1.61-1.13c-1.15,0-1.84,1.77-2,5.7l.21,3c-36.34-.8-57.89,4.68-63.45,15.19-4.57,8.66,3.2,23,14.93,39.34,1.42,2,1.37,1.82,0,3.45-2,2.36-4.11,6.36-2.51,9.86-7.11,3.89-15.57,4.84-22.95,1.63-1.23-3.24-3.88-4.78-6-6.24-.44-.3-2-1.07-2.18-1.58-3.88-12.38-7.77-23.83-11.11-34.5-10.48-33.48,82.72-36.55,97.08-36.53Z"
                  id="path862"/>
            <path class="cls-13"
                  d="M526.63,289.25l-1.3,36.29c36,1,78.64,2.64,114.64,3.64l7.18-33.88c-86.54-5.47-126.42-7.19-120.52-6.05Z"
                  id="path864"/>
            <g id="g870">
              <path class="cls-8"
                    d="M526.62,289.27v.19q-28.83,1.28-102.37,5.85l7.18,33.89c32.6-.92,70.64-2.34,104.27-3.35,33.63,1,71.68,2.43,104.28,3.35l7.17-33.89q-73.6-4.65-102.37-5.85v-.19c2-.38-1.07-.45-9.07-.18-8-.27-11-.2-9.07.18Z"
                    id="path866"/>
              <path class="cls-8"
                    d="M535.71,293.27h-9.24l-1.32,0h-2.38l-2.88,0h-2.63l-1.26,0h0l-1.31,0h-.42l-.89,0h-.28l-1,0-1.31,0h-.06l-1.24,0h-.57c-1.56,0-3.11.08-4.66.12h-.63l-1.77.06h-.2l-1.57.06-1,0-.73,0H498l-1.57.05h-.09l-1.3,0H495l-1.24,0-.83,0-1.76.07h0l-6.91.29-.32,0c-3.39.16-6.75.33-10.11.51l-.19,0-.51,0q-10.08.58-20.06,1.33h-.25l-.08,0q-14.61,1.1-28.94,2.58c-5.44.51-6.48-5.9,0-6.49q14.32-1.49,28.94-2.59h.08q20.06-1.51,40.57-2.3l1.12,0h.55l1.3,0h.1q8.38-.29,16.85-.46l.89,0h0l1.51,0h1.49l.52,0h2.57l3.48,0h2.64l3.84,0H541.1l3.84,0h2.64l3.48,0h2.57l.52,0h1.5l1.5,0h0l.89,0q8.46.17,16.86.46H575l1.31,0h.54l1.13,0q20.52.78,40.57,2.3h.07q14.63,1.11,29,2.59c6.48.59,5.44,7,0,6.49q-14.34-1.47-29-2.58l-.07,0h-.25q-10-.75-20.06-1.33l-.51,0-.18,0q-5.05-.27-10.12-.51l-.32,0-6.91-.29h0l-1.76-.07-.84,0-1.24,0h0L575,294h-.08l-1.57-.05h-.21l-.73,0-1,0-1.58-.06h-.19l-1.77-.06h-.64c-1.54,0-3.1-.09-4.65-.12H562l-1.24,0h-.06l-1.31,0-1,0h-.28l-.89,0h-.42l-1.31,0h-.05l-1.26,0h-2.63l-2.88,0h-2.38l-1.32,0h-9.23Z"
                    id="path868"/>
            </g>
          </g>
          <g id="g884">
            <path class="cls-14" d="M450.89,213.94a7,7,0,1,1-7,7A7,7,0,0,1,450.89,213.94Z" id="path874"/>
            <g id="g882">
              <path class="cls-15" d="M391.25,228.6a6.5,6.5,0,1,1-6.5,6.5A6.5,6.5,0,0,1,391.25,228.6Z" id="path876"/>
              <path class="cls-15" d="M385,216.72a6.5,6.5,0,1,1-6.5,6.5A6.49,6.49,0,0,1,385,216.72Z" id="path878"/>
              <path class="cls-15" d="M379.19,204.72a6.5,6.5,0,1,1-6.5,6.5A6.5,6.5,0,0,1,379.19,204.72Z" id="path880"/>
            </g>
          </g>
          <path class="cls-16" d="M535.71,237.39a8.5,8.5,0,1,1-8.5,8.49A8.5,8.5,0,0,1,535.71,237.39Z" id="path886"/>
          <path class="cls-17"
                d="M494.07,227c3.76-.26,2.83,6.43,2.09,7.92-1,1.94-1.87,2-3.09.2-.93-1.37-2.75-7.87,1-8.12Z"
                id="path888"/>
          <path class="cls-18"
                d="M494.31,230.64c8.82-.6,6.64,15.11,4.89,18.6-2.27,4.57-4.38,4.71-7.25.5-2.2-3.24-6.48-18.51,2.36-19.1Z"
                id="path890"/>
          <path class="cls-19"
                d="M423.13,236.47c3.59-1.14,4.27,5.57,3.91,7.19-.48,2.12-1.34,2.39-3,1-1.23-1.12-4.55-7-1-8.14Z"
                id="path892"/>
          <path class="cls-20"
                d="M424.22,239.92c8.44-2.69,10.06,13.08,9.2,16.9-1.12,5-3.14,5.62-6.94,2.2-2.9-2.61-10.69-16.42-2.26-19.1Z"
                id="path894"/>
          <g id="g904">
            <path class="cls-9"
                  d="M516,156.77c-18.94-1.71-38.31.22-57.49,7.83-16.17,6.42-14.59,25.15,5.13,51.17a27.18,27.18,0,0,0-3,12.12c2.08-.12,3.55-.07,5.38-.11-1.42-3.15.17-7,2-9.73,1.18-1.78,1.42-1.46,0-3.45-11.73-16.35-19.51-30.68-14.93-39.34,5.55-10.51,27.1-16,63.45-15.19-.07-1-.14-1.93-.2-2.9l-.36-.4Z"
                  id="path896"/>
            <g id="g902">
              <path class="cls-21" d="M424,162.1a6.75,6.75,0,1,1-6.74,6.75A6.75,6.75,0,0,1,424,162.1Z" id="path898"/>
              <path class="cls-21" d="M437.29,157.78a6.75,6.75,0,1,1-6.75,6.75A6.75,6.75,0,0,1,437.29,157.78Z"
                    id="path900"/>
            </g>
          </g>
          <g id="g914">
            <path class="cls-8"
                  d="M439,163.54c.66.89,1.34,1.78,2,2.68-10.66,5.85-15.08,12-14,18.22.18,1.07,3.42,12.42,10.66,34.43a64.1,64.1,0,0,1,11.07,9.18c-.27.3.78,1.26.47,1.52.74,3.37-3.05,2.69-5.59,1.85-1.23-3.22-5-6.66-7.12-8.12-.44-.3-2-1.07-2.18-1.58-3.88-12.38-7.77-23.83-11.11-34.5s3.92-18.3,15.82-23.68Z"
                  id="path906"/>
            <path class="cls-22" d="M397,243.08l-.4,2.16a21,21,0,0,1-8,.54c3.69-3.6,6.43-4.36,8.37-2.71Z" id="path908"/>
            <path class="cls-23"
                  d="M396.62,238.14c1.95.44,2.13.76,3,.91a4.41,4.41,0,0,0,3.62-.8c4.23-2.52,4.32,2,2.68,5.44a8.26,8.26,0,0,0,.55,7.39c1.34,2.5,1.06,3.64.11,4.31-.65.44-1.28.84-1.85,1.2-1.13,1.34-2,1.1-2.15-.65-4.22-1.73-5.61-5.77-6.87-9.33-1.85-5.2-8.54-6.43.93-8.47Z"
                  id="path910"/>
            <path class="cls-24"
                  d="M398.27,238.32c3.68,1.3,4.09-.73,6.56-.63-1,5.61-2,8.52-7.82,5.51-3.22-1.66-7.36.77-8.15,2.58-.28.66-2.16-.72-2.85-2.22-2.88-6.28,7.35-7,12.26-5.24Z"
                  id="path912"/>
          </g>
          <g id="g936">
            <g id="g924">
              <path class="cls-25" d="M510.08,142.27a6.72,6.72,0,1,1-6.72,6.73A6.72,6.72,0,0,1,510.08,142.27Z"
                    id="path916"/>
              <path class="cls-25" d="M496.31,142.27a6.72,6.72,0,1,1-6.72,6.73A6.72,6.72,0,0,1,496.31,142.27Z"
                    id="path918"/>
              <path class="cls-25" d="M482.55,143.36a6.72,6.72,0,1,1-6.72,6.72A6.71,6.71,0,0,1,482.55,143.36Z"
                    id="path920"/>
              <path class="cls-25" d="M469.85,145.78a6.73,6.73,0,1,1-6.72,6.73A6.74,6.74,0,0,1,469.85,145.78Z"
                    id="path922"/>
            </g>
            <g id="g934">
              <path class="cls-21" d="M386.35,180.41a6.75,6.75,0,1,1-6.75,6.75A6.75,6.75,0,0,1,386.35,180.41Z"
                    id="path926"/>
              <path class="cls-21" d="M397.92,173.11a6.75,6.75,0,1,1-6.75,6.75A6.75,6.75,0,0,1,397.92,173.11Z"
                    id="path928"/>
              <path class="cls-21" d="M411.07,167a6.75,6.75,0,1,1-6.75,6.74A6.75,6.75,0,0,1,411.07,167Z" id="path930"/>
              <path class="cls-21" d="M377.4,191.38a6.75,6.75,0,1,1-6.75,6.75A6.75,6.75,0,0,1,377.4,191.38Z"
                    id="path932"/>
            </g>
          </g>
          <path class="cls-26" d="M510.69,307.79l25-12.5,25,12.5-25,12.5Z" id="path938"/>
          <path class="cls-27"
                d="M535.7,300.13c6.22,0,11.25,3.37,11.25,7.5s-5,7.51-11.25,7.51-11.25-3.36-11.25-7.51S529.49,300.13,535.7,300.13Z"
                id="path940"/>
          <path class="cls-28" d="M455.12,310.94l24.19-14L505,307.9l-24.19,14Z" id="path942"/>
          <path class="cls-29"
                d="M479.6,301.77c6.2-.39,11.43,2.66,11.68,6.79s-4.56,7.8-10.77,8.17-11.43-2.66-11.69-6.79S473.4,302.14,479.6,301.77Z"
                id="path944"/>
          <g id="g960">
            <path class="cls-8" d="M426,300.89l26.13,9.9-21.58,14.43c-5.59-1.86-10-20.87-4.55-24.33Z" id="path946"/>
            <path class="cls-30"
                  d="M426.52,305.71c6.19-.63,11.54,2.19,12,6.32s-4.26,8-10.44,8.6c-4,.41-6.51-3.1-6.94-6.84s1.19-7.65,5.42-8.08Z"
                  id="path948"/>
            <g id="g958">
              <path class="cls-21" d="M508.57,312.42a3.51,3.51,0,1,1-3.51,3.51A3.51,3.51,0,0,1,508.57,312.42Z"
                    id="path950"/>
              <path class="cls-21" d="M455,315.39a3.51,3.51,0,1,1-3.51,3.51A3.51,3.51,0,0,1,455,315.39Z" id="path952"/>
              <path class="cls-21" d="M453.08,299.18a3.51,3.51,0,1,1-3.51,3.51A3.51,3.51,0,0,1,453.08,299.18Z"
                    id="path954"/>
              <path class="cls-21" d="M508.43,296.9a3.51,3.51,0,1,1-3.51,3.51A3.51,3.51,0,0,1,508.43,296.9Z"
                    id="path956"/>
            </g>
          </g>
          <g id="g970">
            <path class="cls-31"
                  d="M413.45,265.46c2.65-.81,6.81,5.07,7.8,5,1.3-3.37-1.36-11.39-6.09-17.75-3.2-1-3.49-3.11-4.16-7.89-.19-1.42-2.94-.44-3,2-.05,2.61-.25,4.06.33,6.28a2.25,2.25,0,0,1-.88,2.52c5,2,6.22,4.41,6,9.88Z"
                  id="path962"/>
            <path class="cls-32"
                  d="M411.07,244.87a10.42,10.42,0,0,0-.7,3.68,5.13,5.13,0,0,0,1.2,3.52,11.42,11.42,0,0,0,3.3,2.76,8.13,8.13,0,0,1,2.49,3.25,11.4,11.4,0,0,1,1.31,4.32c.1,3.9.87,7.31,2.66,8a3.51,3.51,0,0,0,2.54.16,9,9,0,0,0-.79-2.67,11.51,11.51,0,0,1-1.72-7.57c.24-1.26,1.06-1.73.92-2.9-.28-2.25-2.06-6.57-4.67-6.57s-3.78-.28-5.11-3.68a9.53,9.53,0,0,0-1.43-2.29Z"
                  id="path964"/>
            <path class="cls-33"
                  d="M401.36,254.22a9.46,9.46,0,0,1,2.35-1.24,6.41,6.41,0,0,1,4.19-.19c6.16,1.86,8.87,12.74,2.1,15.35-1.32.16-2.55-1-3.75-3.66-1.41-3.48-2.9-5.89-4.52-7.36-1-1.24-1-2.28-.37-2.9Z"
                  id="path966"/>
            <path class="cls-34"
                  d="M404.47,255c5.93-2.3,10.29,9,4.76,11.12-3,1.15-3.27-2.55-3.84-4.6-.78-2.77-6.61-4.32-.92-6.52Z"
                  id="path968"/>
          </g>
          <path class="cls-35"
                d="M405.1,256.62c2.89-1.12,6.86,5.6,3.24,7.13-2.44,1-4.37-.33-5.15-2.35A3.44,3.44,0,0,1,405.1,256.62Z"
                id="path972"/>
          <path class="cls-28" d="M616.27,310.94l-24.19-14-25.71,10.95,24.18,14Z" id="path974"/>
          <path class="cls-29"
                d="M591.79,301.77c-6.2-.38-11.43,2.67-11.69,6.8s4.57,7.79,10.77,8.17,11.43-2.66,11.69-6.8-4.57-7.79-10.77-8.17Z"
                id="path976"/>
          <path class="cls-8" d="M645.37,300.89l-26.14,9.9,21.58,14.43c5.59-1.86,10-20.87,4.56-24.33Z" id="path978"/>
          <path class="cls-30"
                d="M644.87,305.71c-6.18-.63-11.53,2.19-12,6.32s4.26,8,10.43,8.6c4,.41,6.52-3.1,6.95-6.84S649.11,306.14,644.87,305.71Z"
                id="path980"/>
          <g id="g1006">
            <g id="g990">
              <path class="cls-21" d="M562.84,312.42a3.51,3.51,0,1,0,3.51,3.51A3.52,3.52,0,0,0,562.84,312.42Z"
                    id="path982"/>
              <path class="cls-21" d="M616.42,315.39a3.51,3.51,0,1,0,3.51,3.51A3.51,3.51,0,0,0,616.42,315.39Z"
                    id="path984"/>
              <path class="cls-21" d="M618.33,299.18a3.51,3.51,0,1,0,3.51,3.51A3.51,3.51,0,0,0,618.33,299.18Z"
                    id="path986"/>
              <path class="cls-21" d="M563,296.9a3.51,3.51,0,1,0,3.51,3.51A3.51,3.51,0,0,0,563,296.9Z" id="path988"/>
            </g>
            <path class="cls-14" d="M445.49,202.47a7,7,0,1,1-7,7A7,7,0,0,1,445.49,202.47Z" id="path992"/>
            <path class="cls-14" d="M440.37,190.85a7,7,0,1,1-7,7A7,7,0,0,1,440.37,190.85Z" id="path994"/>
            <path class="cls-21" d="M457.13,149.88a6.75,6.75,0,1,1-6.74,6.75A6.75,6.75,0,0,1,457.13,149.88Z"
                  id="path996"/>
            <g id="g1004">
              <path class="cls-14" d="M445.79,155a7,7,0,1,1-7,7A7,7,0,0,1,445.79,155Z" id="path998"/>
              <path class="cls-14" d="M437.44,164.92a7,7,0,1,1-7,7A7,7,0,0,1,437.44,164.92Z" id="path1000"/>
              <path class="cls-14" d="M436.09,177.38a7,7,0,1,1-7,7A7,7,0,0,1,436.09,177.38Z" id="path1002"/>
            </g>
          </g>
          <path class="cls-8"
                d="M539.12,99.06a3.42,3.42,0,0,0,0-6.83,3.42,3.42,0,0,0-6.83,0,3.42,3.42,0,0,0,0,6.83v7h-6a3.42,3.42,0,0,0-6.83-.06,3.42,3.42,0,0,0,0,6.83,3.42,3.42,0,0,0,6.83.08h6v23.32h6.85V112.93h6a3.42,3.42,0,0,0,6.84-.08,3.42,3.42,0,0,0,0-6.83,3.42,3.42,0,0,0-6.84.06h-6Z"
                id="path1008"/>
          <path class="cls-36" d="M535.71,121.08A18.88,18.88,0,1,1,516.83,140,18.87,18.87,0,0,1,535.71,121.08Z"
                id="path1010"/>
          <path class="cls-37"
                d="M535.71,121.08a19.33,19.33,0,0,1,3.42.31v14.86h-6.85V121.39A19.45,19.45,0,0,1,535.71,121.08Z"
                id="path1012"/>
          <g id="g1032">
            <path class="cls-8"
                  d="M554.17,136.13a18.57,18.57,0,0,1,.39,3.83,19.74,19.74,0,0,1-.18,2.67c-6.21-.21-12.43-.36-18.69-.36s-12.47.15-18.68.36a19.63,19.63,0,0,1-.19-2.67,19.28,19.28,0,0,1,.38-3.83c6.15-.22,12.3-.36,18.49-.36s12.35.14,18.48.36Z"
                  id="path1014"/>
            <path class="cls-9"
                  d="M521.05,151.75c-4-2.46-4.7,1.36-4.6,5.19.38,14.44,3.15,28.18-.74,45.86-1.55,7.08-4.06,11.06-1.62,12.42,6.23,3.48,9.09,6.66,8.1,8.37,1.85,3.51,6.44,2.83,13.5,1.71,7.06,1.12,11.66,1.8,13.5-1.71-1-1.71,1.87-4.89,8.1-8.37,2.45-1.36-.06-5.34-1.62-12.42-3.89-17.68-1.12-31.42-.74-45.86.1-3.83-.59-7.65-4.59-5.19-7.87,4.85-21.34,4.91-29.29,0Z"
                  id="path1016"/>
            <g id="g1030">
              <path class="cls-38" d="M535.71,206.11a7.5,7.5,0,1,1-7.5,7.5A7.5,7.5,0,0,1,535.71,206.11Z" id="path1018"/>
              <path class="cls-38" d="M535.71,193.1a7.5,7.5,0,1,1-7.5,7.5A7.5,7.5,0,0,1,535.71,193.1Z" id="path1020"/>
              <path class="cls-38" d="M535.71,180.61a7.5,7.5,0,1,1-7.5,7.5A7.5,7.5,0,0,1,535.71,180.61Z" id="path1022"/>
              <path class="cls-38" d="M535.71,145.11a7.5,7.5,0,1,1-7.5,7.49A7.49,7.49,0,0,1,535.71,145.11Z"
                    id="path1024"/>
              <path class="cls-38" d="M535.71,156.11a7.5,7.5,0,1,1-7.5,7.5A7.5,7.5,0,0,1,535.71,156.11Z" id="path1026"/>
              <path class="cls-38" d="M535.71,168.11a7.5,7.5,0,1,1-7.5,7.5A7.5,7.5,0,0,1,535.71,168.11Z" id="path1028"/>
            </g>
          </g>
          <g id="g1040">
            <path class="cls-39"
                  d="M527.2,222.52q-4.46-8.24-9.46-10.53c4.6-14.36,5.68-32.89,3-55.75-.27-3.42-1.12-4.89-2.43-4.87-1.15,0-1.85,1.77-2,5.7.83,12.58,1.86,23.58,1.28,32.92-.51,8.33-2.48,15.27-4.65,23.08-.31,1.08.47,1.94,4.25,4.05,2.79,1.58,4.54,3.51,5.13,5.54a2.34,2.34,0,0,1,1.62-.14c2.8.8,4,.58,3.24,0Z"
                  id="path1034"/>
            <path class="cls-39"
                  d="M544.21,222.52q4.45-8.22,9.45-10.53c-4.59-14.36-5.67-32.89-3-55.75.27-3.42,1.12-4.89,2.43-4.87,1.15,0,1.84,1.77,2,5.7-.84,12.58-1.86,23.58-1.29,32.91.51,8.34,2.49,15.28,4.66,23.09.3,1.08-.47,1.94-4.25,4.05-2.79,1.57-4.55,3.51-5.13,5.53a2.47,2.47,0,0,0-1.62-.14c-2.8.81-4,.59-3.24,0Z"
                  id="path1036"/>
            <path class="cls-40"
                  d="M541,219.77c1.07,1.72.79,2.06,1.49,2.61.91.72,2.4.73,3.83.5,5.77-.9,5,2.57,2.42,6.47-1.28,2-4.24,3.91-5.79,5.59s-1.67,3.07-2.29,3.49c-2.21,0-4.12.06-5,0s-2.77,0-5,0c-.61-.42-.74-1.82-2.28-3.49s-4.51-3.64-5.79-5.59c-2.55-3.9-3.35-7.37,2.41-6.47,1.44.23,2.93.22,3.83-.5.71-.55.42-.89,1.5-2.61a7.65,7.65,0,0,1,2.45-2.51c.91-.56,1.89-.25,2.87-.25s2-.31,2.88.25a7.75,7.75,0,0,1,2.45,2.51Z"
                  id="path1038"/>
          </g>
        </g>
        <path class="cls-11" d="M534.83,238.6l-1-.14A19.27,19.27,0,0,0,529.1,228c2.92,2,5.08,6.19,5.73,10.65"
              id="path1044"/>
        <path class="cls-11" d="M536.57,238.6l1-.14A19.19,19.19,0,0,1,542.3,228c-2.9,2-5.07,6.19-5.73,10.65"
              id="path1046"/>
        <path class="cls-8"
              d="M549,222.81a11.07,11.07,0,0,1-2.18,3.78c-1.7,1.75-4.5.61-7.22-1.66a6.38,6.38,0,0,0-3.89-1.05,6.47,6.47,0,0,0-3.85,1.05c-2.72,2.27-5.53,3.41-7.23,1.66a11.37,11.37,0,0,1-2.17-3.78,8.1,8.1,0,0,1,2.62.06c1.43.23,2.92.22,3.83-.5.71-.55.42-.89,1.5-2.6a7.5,7.5,0,0,1,2.45-2.52c.91-.56,1.89-.25,2.87-.25s2-.31,2.88.25a7.57,7.57,0,0,1,2.44,2.52c1.07,1.71.79,2,1.5,2.6.91.72,2.39.73,3.83.5a8.1,8.1,0,0,1,2.62-.06Z"
              id="path1048"/>
        <path class="cls-10"
              d="M509.6,240.56c1.72-1.08,2.06-.79,2.61-1.49a5.14,5.14,0,0,0,.49-3.83c-.9-5.77,2.57-5,6.47-2.41,2,1.27,3.91,4.23,5.59,5.78s3.06,1.67,3.48,2.29c0,2.2.06,4.12,0,5h0c0,.86,0,2.78,0,5-.42.61-1.81.74-3.48,2.29s-3.64,4.5-5.59,5.77c-3.9,2.55-7.37,3.36-6.47-2.41a5.15,5.15,0,0,0-.49-3.83c-.55-.7-.89-.41-2.61-1.49a7.6,7.6,0,0,1-2.52-2.45c-.56-.91-.25-1.89-.25-2.87s-.31-2,.25-2.88A7.6,7.6,0,0,1,509.6,240.56Z"
              id="path1050"/>
        <path class="cls-11" d="M528.42,246.77l-.15,1a19.13,19.13,0,0,0-10.5,4.75c2-2.91,6.19-5.07,10.65-5.72"
              id="path1052"/>
        <path class="cls-11" d="M528.42,245l-.15-1a19.21,19.21,0,0,1-10.5-4.76c2,2.91,6.19,5.08,10.65,5.73"
              id="path1054"/>
        <path class="cls-12"
              d="M512.63,232.61a11.11,11.11,0,0,1,3.79,2.18c1.76,1.69.62,4.5-1.65,7.23a7.56,7.56,0,0,0,0,7.72c2.27,2.72,3.41,5.53,1.65,7.23a11.27,11.27,0,0,1-3.79,2.18,8.52,8.52,0,0,1,.07-2.63,5.12,5.12,0,0,0-.49-3.82c-.55-.71-.89-.42-2.61-1.5a7.56,7.56,0,0,1-2.51-2.45c-.57-.91-.26-1.89-.26-2.88s-.31-2,.26-2.87a7.56,7.56,0,0,1,2.51-2.45c1.72-1.07,2.06-.79,2.61-1.49a5.14,5.14,0,0,0,.49-3.83,8.45,8.45,0,0,1-.07-2.62Z"
              id="path1056"/>
        <path class="cls-10"
              d="M561.81,251.21c-1.72,1.08-2.06.79-2.61,1.49-.72.92-.72,2.41-.5,3.83.9,5.77-2.57,5-6.47,2.41-1.94-1.27-3.91-4.23-5.59-5.78s-3.07-1.67-3.48-2.28c0-2.21-.07-4.13,0-5h0c0-.86,0-2.78,0-5,.41-.61,1.81-.74,3.48-2.28s3.65-4.51,5.59-5.78c3.9-2.55,7.37-3.36,6.47,2.41-.22,1.42-.22,2.92.5,3.83.55.7.89.41,2.61,1.49a7.75,7.75,0,0,1,2.51,2.45c.56.91.25,1.89.25,2.88s.31,2-.25,2.87A7.75,7.75,0,0,1,561.81,251.21Z"
              id="path1058"/>
        <path class="cls-11" d="M543,245l.15-1a19.24,19.24,0,0,0,10.5-4.76c-2,2.91-6.18,5.08-10.65,5.73" id="path1060"/>
        <path class="cls-11" d="M543,246.77l.15,1a19.16,19.16,0,0,1,10.5,4.75c-2-2.91-6.18-5.07-10.65-5.72"
              id="path1062"/>
        <g id="g1076">
          <g id="g1072">
            <path class="cls-12"
                  d="M558.76,259.15A11.07,11.07,0,0,1,555,257c-1.76-1.69-.62-4.51,1.65-7.23a7.56,7.56,0,0,0,0-7.72c-2.27-2.73-3.41-5.53-1.65-7.23a11.07,11.07,0,0,1,3.78-2.18,8.45,8.45,0,0,1-.07,2.62,5.22,5.22,0,0,0,.5,3.84c.55.69.89.41,2.61,1.48a7.75,7.75,0,0,1,2.51,2.45c.56.92.26,1.89.26,2.88s.3,2-.26,2.87a7.56,7.56,0,0,1-2.51,2.45c-1.72,1.08-2.06.79-2.61,1.5a5.17,5.17,0,0,0-.5,3.82,8.52,8.52,0,0,1,.07,2.63Z"
                  id="path1064"/>
            <g id="g1070">
              <path class="cls-16" d="M535.71,237.39a8.5,8.5,0,1,1-8.5,8.49A8.5,8.5,0,0,1,535.71,237.39Z"
                    id="path1066"/>
              <path class="cls-41" d="M535.69,239.63a6.25,6.25,0,1,1-6.24,6.25A6.25,6.25,0,0,1,535.69,239.63Z"
                    id="path1068"/>
            </g>
          </g>
          <path class="cls-42" d="M535.71,242a3.94,3.94,0,1,1-3.94,3.93A3.94,3.94,0,0,1,535.71,242Z" id="path1074"/>
        </g>
        <path class="cls-11" d="M402.51,253.32l.74-.32a7.57,7.57,0,0,1-1.41-6.83c-1.44,1.78-1.09,4.58.67,7.15"
              id="path1078"/>
        <path class="cls-8"
              d="M457.19,224.57c1.46,1.84,1.29,2.28,2.08,2.81a4.17,4.17,0,0,0,3.74,0c5.34-2,5.35,2.19,3.79,7-.75,2.34-3,4.88-4.05,6.87s-.78,3.41-1.23,3.91c-1.94.31-3.59.55-4.35.64h0c-.75.11-2.4.32-4.3.53-.62-.35-1.1-1.74-2.86-3.27s-4.84-3.17-6.5-5c-3.34-3.8-5.13-7.43.14-7.31,1.31,0,2.62-.2,3.2-1.14.47-.73.12-1.06.57-3.19a7.61,7.61,0,0,1,1.48-3.33c.67-.81,1.66-.63,2.57-.8s1.74-.71,2.75-.2a9.16,9.16,0,0,1,3,2.55Z"
              id="path1080"/>
        <path class="cls-11" d="M456.43,245.88l-.87,0a25.78,25.78,0,0,0-6.93-10.41c3.1,1.72,6.11,5.92,7.8,10.45"
              id="path1082"/>
        <path class="cls-11" d="M458,245.66l.81-.25a21.85,21.85,0,0,1,1.69-11.88c-2.15,2.59-3,7.43-2.5,12.13"
              id="path1084"/>
        <path class="cls-8"
              d="M465.5,226.82a13.28,13.28,0,0,1-1.18,4.71c-1.17,2.24-4,1.38-7.13-.76a5.29,5.29,0,0,0-3.82-.59,4.69,4.69,0,0,0-3.17,1.76c-1.75,2.88-3.85,4.49-5.83,2.85a15.6,15.6,0,0,1-3-3.8,5.8,5.8,0,0,1,2.29-.32c1.32,0,2.63-.2,3.21-1.13.46-.73.12-1.06.56-3.2A7.8,7.8,0,0,1,448.9,223c.67-.82,1.65-.63,2.56-.8s1.74-.71,2.76-.21a9.07,9.07,0,0,1,3,2.56c1.47,1.84,1.28,2.28,2.08,2.81a4.21,4.21,0,0,0,3.74,0,6.28,6.28,0,0,1,2.49-.51Z"
              id="path1086"/>
        <path class="cls-43"
              d="M436.33,247.78c.86-1,1.2-.8,1.35-1.44a5.91,5.91,0,0,0-.94-3.39c-2.56-5,.17-4.56,3.86-2.6a20.19,20.19,0,0,1,3.11,2.3c1.09.92,2.17,1.88,3.07,2.53,1.84,1.31,3,1.35,3.5,1.87.82,2,1.48,3.78,1.77,4.57h0c.32.79,1,2.54,1.7,4.55-.12.57-1.17.72-2,2.17s-1.38,4-2.33,5.22c-1.39,1.83-2.66,2.91-3.65,2.73s-1.69-1.61-2-4.78a5.54,5.54,0,0,0-1.62-3.31c-.64-.6-.78-.35-2.36-1.22a10.28,10.28,0,0,1-2.58-2.05,6.62,6.62,0,0,1-1.12-2.45,6.09,6.09,0,0,1-.77-2.47,4.08,4.08,0,0,1,.93-2.24Z"
              id="path1088"/>
        <path class="cls-11"
              d="M452.54,253.18c.08.36.17.7.25,1a9.68,9.68,0,0,0-4,1.91,10.11,10.11,0,0,0-2.66,3.42,7.11,7.11,0,0,1,2.12-4,9.79,9.79,0,0,1,4.29-2.38"
              id="path1090"/>
        <path class="cls-11"
              d="M451.91,251.36l-.48-1a16.44,16.44,0,0,1-5.15-1.32,23.34,23.34,0,0,1-4.89-2.91,15.85,15.85,0,0,0,4.74,3.52,17.55,17.55,0,0,0,5.78,1.73"
              id="path1092"/>
        <path class="cls-9"
              d="M435.9,239.73a9.69,9.69,0,0,1,3.08,1.93,4.92,4.92,0,0,1,1.67,3.22,11.27,11.27,0,0,1-.33,4.23,8.25,8.25,0,0,0,.59,4,11,11,0,0,0,2.15,3.82c2.69,2.67,4.58,5.5,3.82,7.25a3.62,3.62,0,0,1-1.62,2,8.75,8.75,0,0,1-1.35-2.34,10.88,10.88,0,0,0-4.16-6.3c-1.06-.66-2-.38-2.68-1.25-1.39-1.71-3.22-5.87-1.44-7.77s2.4-2.94.91-6.17a9.71,9.71,0,0,1-.64-2.56Z"
              id="path1094"/>
        <path class="cls-44"
              d="M482.85,253.28c-1.4,1.2-1.76,1-2.15,1.68-.5.93-.26,2.33.17,3.65,1.69,5.18-1.5,4.72-5.33,2.74-1.9-1-4.13-3.51-5.85-4.77s-3-1.26-3.43-1.79c-.48-2-.88-3.84-1-4.66h0c-.19-.83-.57-2.66-1-4.82.24-.64,1.44-.94,2.62-2.68s2.37-5,3.92-6.67c3.16-3.28,6.34-4.69,6.51,1.62a6,6,0,0,0,1.14,3.92c.65.66.92.31,2.72,1.2a7.84,7.84,0,0,1,2.78,2.18c.68.86.54,1.89.69,2.87s.59,1.92.2,2.88a7,7,0,0,1-2,2.65Z"
              id="path1096"/>
        <path class="cls-11"
              d="M465.06,249.33c0-.31-.06-.63-.08-.94a15.49,15.49,0,0,0,8.49-5.93c-1.25,3.15-4.62,5.76-8.41,6.87"
              id="path1098"/>
        <path class="cls-11" d="M465.42,251l.31.9a18,18,0,0,1,10.11,3.43c-2.26-2.56-6.4-4.18-10.42-4.33" id="path1100"/>
        <g id="g1204">
          <g id="g1110">
            <path class="cls-45"
                  d="M481.33,261a11.33,11.33,0,0,1-3.7-1.67c-1.83-1.41-1.29-4.13.27-6.94a6.33,6.33,0,0,0,.3-3.89,7.06,7.06,0,0,0-1.63-3.69c-2.58-2.47-4.16-5.19-2.85-7.19a10.35,10.35,0,0,1,3.16-2.84,9.26,9.26,0,0,1,.42,2.79c0,1.53.31,3.08,1.14,3.91.64.66.91.32,2.72,1.2a8.06,8.06,0,0,1,2.78,2.19c.67.86.53,1.88.68,2.87s.59,1.93.2,2.88a6.93,6.93,0,0,1-2,2.64c-1.4,1.21-1.76,1-2.15,1.69-.5.93-.26,2.33.17,3.64a7.84,7.84,0,0,1,.46,2.41Z"
                  id="path1102"/>
            <g id="g1108">
              <path class="cls-8"
                    d="M457,242.63c4.43-.21,8.7,3.63,9.33,8.33s-2.46,8.36-6.71,8.41-8.18-3.4-9-7.94S452.57,242.85,457,242.63Z"
                    id="path1104"/>
              <path class="cls-8"
                    d="M457.37,244.93c3.23-.14,6.34,2.64,6.81,6.08s-1.74,6.17-4.9,6.22a7,7,0,0,1-6.64-5.87c-.59-3.39,1.49-6.29,4.73-6.43Z"
                    id="path1106"/>
            </g>
          </g>
          <path class="cls-30"
                d="M457.73,247.29a4.4,4.4,0,0,1,4.27,3.8,3.24,3.24,0,0,1-3.07,3.93,4.38,4.38,0,0,1-4.2-3.71,3.26,3.26,0,0,1,3-4Z"
                id="path1112"/>
          <g id="g1124">
            <path class="cls-14" d="M620.52,213.94a7,7,0,1,0,7,7A7,7,0,0,0,620.52,213.94Z" id="path1114"/>
            <g id="g1122">
              <path class="cls-15" d="M680.14,228.6a6.5,6.5,0,1,0,6.5,6.5A6.49,6.49,0,0,0,680.14,228.6Z" id="path1116"/>
              <path class="cls-15" d="M686.35,216.72a6.5,6.5,0,1,0,6.5,6.5A6.49,6.49,0,0,0,686.35,216.72Z"
                    id="path1118"/>
              <path class="cls-15" d="M692.2,204.72a6.5,6.5,0,1,0,6.5,6.5A6.5,6.5,0,0,0,692.2,204.72Z" id="path1120"/>
            </g>
          </g>
          <path class="cls-17"
                d="M577.35,227c-3.76-.25-2.83,6.43-2.09,7.93,1,1.94,1.86,2,3.09.2.93-1.37,2.75-7.88-1-8.12Z"
                id="path1126"/>
          <path class="cls-18"
                d="M577.09,230.63c-8.83-.59-6.64,15.11-4.9,18.61,2.27,4.57,4.38,4.71,7.26.49C581.65,246.5,585.92,231.23,577.09,230.63Z"
                id="path1128"/>
          <path class="cls-19"
                d="M648.27,236.47c-3.59-1.15-4.29,5.57-3.91,7.2.47,2.12,1.33,2.39,2.94.94,1.24-1.12,4.55-7,1-8.14Z"
                id="path1130"/>
          <path class="cls-20"
                d="M647.17,239.92c-8.43-2.68-10,13.09-9.19,16.9,1.12,5,3.14,5.63,6.93,2.21,2.91-2.61,10.7-16.43,2.26-19.11Z"
                id="path1132"/>
          <g id="g1142">
            <path class="cls-9"
                  d="M555.42,156.77c19-1.71,38.32.22,57.5,7.83,16.17,6.42,14.58,25.15-5.13,51.17a27.18,27.18,0,0,1,3,12.12c-2.08-.12-3.54-.07-5.38-.11,1.42-3.15-.17-7-2-9.73-1.18-1.78-1.41-1.46,0-3.45,11.73-16.35,19.51-30.68,14.93-39.34-5.55-10.51-27.1-16-63.45-15.19.07-1,.14-1.93.2-2.9l.35-.4Z"
                  id="path1134"/>
            <g id="g1140">
              <path class="cls-21" d="M647.33,162.1a6.75,6.75,0,1,0,6.75,6.75A6.75,6.75,0,0,0,647.33,162.1Z"
                    id="path1136"/>
              <path class="cls-21" d="M634.12,157.78a6.75,6.75,0,1,0,6.75,6.75A6.75,6.75,0,0,0,634.12,157.78Z"
                    id="path1138"/>
            </g>
          </g>
          <g id="g1152">
            <path class="cls-8"
                  d="M632.35,163.54c-.66.89-1.34,1.78-2,2.68,10.66,5.85,15.08,12,14,18.22-.18,1.07-3.42,12.42-10.66,34.43a64.1,64.1,0,0,0-11.07,9.18c.27.3-.79,1.26-.47,1.52-.74,3.37,3.05,2.69,5.6,1.85,1.22-3.22,5-6.66,7.11-8.12.44-.3,2-1.07,2.18-1.58,3.88-12.38,7.77-23.83,11.11-34.5s-3.91-18.3-15.82-23.68Z"
                  id="path1144"/>
            <path class="cls-22" d="M674.43,243.08l.41,2.16a20.93,20.93,0,0,0,8,.54c-3.7-3.6-6.44-4.36-8.38-2.7Z"
                  id="path1146"/>
            <path class="cls-23"
                  d="M674.77,238.14c-1.94.44-2.13.76-3,.91a4.44,4.44,0,0,1-3.63-.8c-4.22-2.52-4.31,2-2.67,5.44a8.23,8.23,0,0,1-.56,7.39c-1.33,2.5-1.05,3.64-.1,4.31l1.84,1.2c1.13,1.34,2,1.1,2.17-.65,4.2-1.73,5.6-5.77,6.86-9.33,1.85-5.2,8.54-6.43-.94-8.47Z"
                  id="path1148"/>
            <path class="cls-24"
                  d="M673.12,238.32c-3.66,1.3-4.07-.73-6.55-.63,1,5.61,2,8.52,7.82,5.51,3.23-1.66,7.36.77,8.15,2.58.28.66,2.17-.72,2.86-2.22,2.87-6.28-7.36-7-12.28-5.24Z"
                  id="path1150"/>
          </g>
          <g id="g1174">
            <g id="g1162">
              <path class="cls-25" d="M561.32,142.27A6.72,6.72,0,1,0,568,149,6.72,6.72,0,0,0,561.32,142.27Z"
                    id="path1154"/>
              <path class="cls-25" d="M575.09,142.27a6.72,6.72,0,1,0,6.72,6.73A6.72,6.72,0,0,0,575.09,142.27Z"
                    id="path1156"/>
              <path class="cls-25" d="M588.86,143.36a6.72,6.72,0,1,0,6.72,6.72A6.71,6.71,0,0,0,588.86,143.36Z"
                    id="path1158"/>
              <path class="cls-25" d="M601.55,145.78a6.73,6.73,0,1,0,6.72,6.73A6.73,6.73,0,0,0,601.55,145.78Z"
                    id="path1160"/>
            </g>
            <g id="g1172">
              <path class="cls-21" d="M685,180.41a6.75,6.75,0,1,0,6.75,6.75A6.75,6.75,0,0,0,685,180.41Z" id="path1164"/>
              <path class="cls-21" d="M673.48,173.11a6.75,6.75,0,1,0,6.74,6.75A6.76,6.76,0,0,0,673.48,173.11Z"
                    id="path1166"/>
              <path class="cls-21" d="M660.32,167a6.75,6.75,0,1,0,6.75,6.74A6.75,6.75,0,0,0,660.32,167Z" id="path1168"/>
              <path class="cls-21" d="M694,191.38a6.75,6.75,0,1,0,6.74,6.75A6.75,6.75,0,0,0,694,191.38Z" id="path1170"/>
            </g>
          </g>
          <g id="g1184">
            <path class="cls-31"
                  d="M658,265.46c-2.66-.81-6.81,5.07-7.8,5-1.31-3.37,1.36-11.39,6.08-17.75,3.2-1,3.5-3.11,4.16-7.89.2-1.42,3-.44,3,2,.05,2.61.25,4.06-.33,6.28a2.22,2.22,0,0,0,.88,2.52C659,257.56,657.72,260,658,265.46Z"
                  id="path1176"/>
            <path class="cls-32"
                  d="M660.34,244.87a10.4,10.4,0,0,1,.71,3.68,5.23,5.23,0,0,1-1.2,3.52,11.34,11.34,0,0,1-3.31,2.76,8.31,8.31,0,0,0-2.49,3.25,11.58,11.58,0,0,0-1.31,4.32c-.1,3.9-.87,7.31-2.66,8a3.51,3.51,0,0,1-2.54.16,9,9,0,0,1,.79-2.67,11.61,11.61,0,0,0,1.73-7.57c-.25-1.26-1.08-1.73-.93-2.9.29-2.25,2.06-6.57,4.67-6.57s3.79-.28,5.11-3.68a10.21,10.21,0,0,1,1.43-2.29Z"
                  id="path1178"/>
            <path class="cls-33"
                  d="M670,254.23a9,9,0,0,0-2.35-1.24,6.32,6.32,0,0,0-4.18-.2c-6.17,1.85-8.88,12.74-2.12,15.35,1.33.17,2.57-1,3.76-3.66,1.41-3.47,2.9-5.88,4.52-7.36,1-1.24,1-2.27.37-2.89Z"
                  id="path1180"/>
            <path class="cls-34"
                  d="M666.92,255c-5.93-2.31-10.29,9-4.75,11.11,3,1.15,3.25-2.54,3.83-4.59C666.78,258.7,672.61,257.15,666.92,255Z"
                  id="path1182"/>
          </g>
          <path class="cls-35"
                d="M666.29,256.62c-2.89-1.12-6.85,5.6-3.23,7.13,2.44,1,4.37-.32,5.15-2.35A3.45,3.45,0,0,0,666.29,256.62Z"
                id="path1186"/>
          <g id="g1202">
            <path class="cls-14" d="M625.91,202.47a7,7,0,1,0,7,7A7,7,0,0,0,625.91,202.47Z" id="path1188"/>
            <path class="cls-14" d="M631,190.85a7,7,0,1,0,7,7A7,7,0,0,0,631,190.85Z" id="path1190"/>
            <path class="cls-21" d="M614.26,149.88a6.75,6.75,0,1,0,6.75,6.75A6.75,6.75,0,0,0,614.26,149.88Z"
                  id="path1192"/>
            <g id="g1200">
              <path class="cls-14" d="M625.61,155a7,7,0,1,0,7,7A7,7,0,0,0,625.61,155Z" id="path1194"/>
              <path class="cls-14" d="M634,164.92a7,7,0,1,0,7,7A7,7,0,0,0,634,164.92Z" id="path1196"/>
              <path class="cls-14" d="M635.31,177.38a7,7,0,1,0,7,7A7,7,0,0,0,635.31,177.38Z" id="path1198"/>
            </g>
          </g>
        </g>
        <path class="cls-11" d="M668.89,253.32l-.75-.32a7.55,7.55,0,0,0,1.42-6.83c1.44,1.78,1.08,4.58-.67,7.15"
              id="path1206"/>
        <path class="cls-8"
              d="M614.18,224.57c-1.46,1.84-1.28,2.28-2.07,2.81a4.17,4.17,0,0,1-3.74,0c-5.34-2-5.35,2.19-3.8,7,.76,2.34,3,4.88,4.06,6.87s.78,3.41,1.22,3.91c1.94.31,3.6.55,4.36.64h0c.74.11,2.4.32,4.29.53.63-.35,1.11-1.74,2.87-3.27s4.84-3.17,6.49-5c3.35-3.8,5.13-7.43-.13-7.31-1.31,0-2.62-.2-3.21-1.14-.46-.73-.11-1.06-.56-3.19a7.72,7.72,0,0,0-1.48-3.33c-.68-.81-1.66-.63-2.57-.8s-1.74-.71-2.75-.2a9.06,9.06,0,0,0-3,2.55Z"
              id="path1208"/>
        <path class="cls-11" d="M615,245.88l.88,0a25.68,25.68,0,0,1,6.93-10.41c-3.09,1.72-6.12,5.92-7.81,10.45"
              id="path1210"/>
        <path class="cls-11" d="M613.45,245.66l-.82-.25a21.76,21.76,0,0,0-1.69-11.88c2.16,2.59,3,7.43,2.51,12.13"
              id="path1212"/>
        <path class="cls-8"
              d="M605.89,226.82a13.28,13.28,0,0,0,1.18,4.71c1.17,2.24,4,1.38,7.12-.76a5.34,5.34,0,0,1,3.83-.59,4.63,4.63,0,0,1,3.16,1.76c1.76,2.88,3.87,4.49,5.83,2.85a15.64,15.64,0,0,0,3-3.8,5.79,5.79,0,0,0-2.3-.32c-1.31,0-2.62-.2-3.21-1.13-.45-.73-.1-1.06-.56-3.2A7.79,7.79,0,0,0,622.5,223c-.68-.82-1.66-.63-2.57-.8s-1.74-.71-2.76-.21a9.3,9.3,0,0,0-3,2.56c-1.46,1.84-1.28,2.28-2.08,2.81a4.18,4.18,0,0,1-3.73,0,6.28,6.28,0,0,0-2.49-.51Z"
              id="path1214"/>
        <path class="cls-43"
              d="M635.05,247.78c-.84-1-1.19-.8-1.34-1.44a5.83,5.83,0,0,1,.94-3.39c2.56-5-.17-4.56-3.86-2.6a20.19,20.19,0,0,0-3.11,2.3c-1.08.92-2.17,1.88-3.08,2.53-1.83,1.31-3,1.35-3.49,1.87-.81,2-1.49,3.78-1.77,4.57h0c-.31.79-1,2.54-1.69,4.55.12.57,1.17.72,2,2.17s1.38,4,2.33,5.22c1.4,1.83,2.66,2.91,3.65,2.73s1.69-1.61,1.95-4.78a5.57,5.57,0,0,1,1.64-3.31c.63-.6.77-.35,2.35-1.22a10.28,10.28,0,0,0,2.58-2.05,6.44,6.44,0,0,0,1.11-2.45A6,6,0,0,0,636,250a4.16,4.16,0,0,0-.93-2.24Z"
              id="path1216"/>
        <path class="cls-11"
              d="M618.84,253.18c-.08.36-.16.7-.24,1a9.68,9.68,0,0,1,4,1.91,10.26,10.26,0,0,1,2.67,3.42,7.12,7.12,0,0,0-2.13-4,9.77,9.77,0,0,0-4.3-2.38"
              id="path1218"/>
        <path class="cls-11"
              d="M619.5,251.36c.15-.35.31-.68.47-1a16.44,16.44,0,0,0,5.15-1.32,23.34,23.34,0,0,0,4.89-2.91,15.77,15.77,0,0,1-4.75,3.52,17.37,17.37,0,0,1-5.76,1.73"
              id="path1220"/>
        <path class="cls-9"
              d="M635.51,239.73a9.8,9.8,0,0,0-3.08,1.93,4.92,4.92,0,0,0-1.67,3.22,11.47,11.47,0,0,0,.32,4.23,8,8,0,0,1-.58,4,11.11,11.11,0,0,1-2.15,3.82c-2.69,2.67-4.58,5.5-3.83,7.25a3.67,3.67,0,0,0,1.63,2,8.75,8.75,0,0,0,1.35-2.34,8.57,8.57,0,0,1,1.71-3.82c.67-.69.81-1.47,2.45-2.48,1.06-.66,2-.38,2.68-1.25,1.39-1.71,3.22-5.87,1.44-7.77s-2.4-2.94-.91-6.17a9.33,9.33,0,0,0,.64-2.56Z"
              id="path1222"/>
        <path class="cls-44"
              d="M588.55,253.29c1.4,1.2,1.76,1,2.14,1.69a4.91,4.91,0,0,1-.16,3.63c-1.68,5.2,1.5,4.74,5.33,2.75,1.9-1,4.13-3.51,5.85-4.78s3-1.25,3.43-1.78c.49-2,.87-3.84,1-4.66s.57-2.66,1-4.82c-.23-.64-1.43-.94-2.6-2.68s-2.38-5.06-3.93-6.66c-3.16-3.3-6.34-4.71-6.52,1.61,0,1.53-.31,3.08-1.14,3.91-.64.66-.91.32-2.71,1.2a8,8,0,0,0-2.79,2.19c-.67.86-.53,1.89-.68,2.87s-.59,1.93-.2,2.89a7.11,7.11,0,0,0,2,2.64Z"
              id="path1224"/>
        <path class="cls-11"
              d="M606.32,249.33c0-.31.06-.63.07-.94a15.5,15.5,0,0,1-8.48-5.93c1.25,3.15,4.63,5.76,8.41,6.87"
              id="path1226"/>
        <path class="cls-11" d="M606,251l-.32.9a18,18,0,0,0-10.11,3.43c2.27-2.56,6.41-4.18,10.43-4.33" id="path1228"/>
        <g id="g1242">
          <path class="cls-45"
                d="M590.08,261a11.19,11.19,0,0,0,3.69-1.67c1.84-1.41,1.31-4.13-.27-6.94a6.41,6.41,0,0,1-.3-3.89,7.06,7.06,0,0,1,1.64-3.69c2.58-2.47,4.16-5.19,2.85-7.19a10.35,10.35,0,0,0-3.16-2.84,9.59,9.59,0,0,0-.42,2.79,6,6,0,0,1-1.13,3.91c-.65.66-.92.32-2.72,1.2a8.1,8.1,0,0,0-2.79,2.19c-.67.86-.53,1.88-.69,2.87s-.59,1.93-.19,2.88a7,7,0,0,0,2,2.64c1.41,1.21,1.76,1,2.15,1.69a5,5,0,0,1-.16,3.64,7.84,7.84,0,0,0-.46,2.41Z"
                id="path1230"/>
          <g id="g1240">
            <path class="cls-8"
                  d="M614.4,242.63c-4.43-.21-8.71,3.63-9.33,8.33s2.46,8.36,6.7,8.41,8.19-3.4,9-7.94-2-8.58-6.38-8.8Z"
                  id="path1232"/>
            <path class="cls-8"
                  d="M614,244.93c-3.24-.14-6.34,2.64-6.82,6.08s1.75,6.17,4.91,6.22a7,7,0,0,0,6.64-5.87c.59-3.39-1.49-6.29-4.73-6.43Z"
                  id="path1234"/>
            <path class="cls-30"
                  d="M613.67,247.29a4.38,4.38,0,0,0-4.27,3.8,3.23,3.23,0,0,0,3.06,3.93,4.37,4.37,0,0,0,4.2-3.71,3.25,3.25,0,0,0-3-4Z"
                  id="path1236"/>
            <path class="cls-8"
                  d="M639.91,326.78c2.2.33,3.36,1.71,3.29,3.12s-1.09,2.8-3.3,3.12a9.38,9.38,0,0,1-1.68.3,1229.51,1229.51,0,0,1-205.06,0,9.9,9.9,0,0,1-1.68-.3c-2.2-.32-3.36-1.7-3.28-3.12-.08-1.41,1.08-2.79,3.28-3.12a11,11,0,0,1,1.68-.29,1227.37,1227.37,0,0,1,205.06,0,10.76,10.76,0,0,1,1.69.29Z"
                  id="path1238"/>
          </g>
        </g>
      </g>
      <g id="g1472">
        <path class="cls-46"
              d="M458.77,331.19q12.8-.79,25.62-1.32t25.64-.79q12.84-.25,25.66-.24t25.66.28q12.82.27,25.64.81t25.63,1.32"
              id="path1246"/>
        <path class="cls-46" d="M458.77,331.41q12.8.79,25.62,1.32m102.6-.06q12.82-.53,25.63-1.31" id="path1248"/>
        <path class="cls-47"
              d="M348.19,334.31V637.36c0,54.23,21.06,103.46,55,139.15s80.84,57.8,132.47,57.8h0c51.63,0,98.51-22.12,132.47-57.8s55-84.92,55-139.16v-303Z"
              id="path1250"/>
        <g id="g1470">
          <g id="g1308">
            <g id="g1294">
              <path class="cls-48"
                    d="M537.41,818.65c1.62-.27,4.38.07,6.45-1.56,2.76-2.17,1.67-10.93,1.42-16.47-1.28-28.32-2.44-76-3.88-143a18.55,18.55,0,0,0-5.7.09,18.56,18.56,0,0,0-5.7-.09c-1.44,67-2.6,114.62-3.87,143-.25,5.54-1.35,14.3,1.41,16.47,2.08,1.63,4.83,1.29,6.46,1.56Z"
                    id="path1252"/>
              <path class="cls-21"
                    d="M555.17,817.85c-1.65-.12-4.36.48-6.58-1-2.94-1.9-3.19-10.86-3.44-16.41-1.3-28.31-3.92-75.76-8.55-142.57a18.71,18.71,0,0,1,5.68-.43l.77-.18c10.67,66.09,14.69,113,22,141.25,1,3.91,3.17,13.69-.2,16.87-1.92,1.81-4.68,1.71-6.29,2.13Z"
                    id="path1254"/>
              <path class="cls-21"
                    d="M576,814.87c-1.65,0-4.29.86-6.63-.36-3.11-1.64-3-10.59-4.37-16-7.3-28.29-11.32-75.18-22-141.29a18.71,18.71,0,0,1,5.62-1l.23-.07c17,64.26,22,109.57,35.19,137.55,1.21,3.88,4.53,14.17,1.36,17.76-1.75,2-4.52,2.14-6.07,2.7Z"
                    id="path1256"/>
              <path class="cls-49"
                    d="M597.05,808.93c-1.64.19-4.41,1.73-6.86.73-3.25-1.32-3.76-10.88-6.1-15.87-13.22-28.12-18.29-73.71-35.42-138.44a18.6,18.6,0,0,1,5.5-1.49c1.48-.68,1.2-1,3.56-1.38,19.91,63.94,26.38,108.41,45.17,136,3,4.45,5.25,13.37,3.19,16.22-1.54,2.14-4.28,2.58-5.77,3.28Z"
                    id="path1258"/>
              <path class="cls-21"
                    d="M516.23,817.85c1.64-.12,4.34.48,6.56-1,3-1.9,3.19-10.86,3.45-16.41,1.3-28.31,3.93-75.76,8.55-142.57a18.75,18.75,0,0,0-5.69-.43l-.76-.18c-10.67,66.09-14.69,113-22,141.25-1,3.91-3.17,13.69.2,16.87,1.92,1.81,4.69,1.71,6.28,2.13Z"
                    id="path1260"/>
              <path class="cls-21"
                    d="M495.36,814.87c1.65,0,4.29.86,6.62-.36,3.12-1.64,3-10.59,4.38-16,7.3-28.29,11.32-75.18,22-141.29a18.7,18.7,0,0,0-5.61-1l-.24-.07c-16.95,64.26-22,109.57-35.19,137.55-1.21,3.88-4.54,14.17-1.36,17.76,1.75,2,4.52,2.14,6.07,2.7Z"
                    id="path1262"/>
              <path class="cls-49"
                    d="M474.32,808.94c1.65.19,4.41,1.72,6.86.72,3.26-1.32,3.77-10.88,6.11-15.87,13.22-28.12,18.29-73.71,35.43-138.44a18.76,18.76,0,0,0-5.5-1.49c-1.49-.68-1.21-1-3.57-1.38-19.91,63.94-26.38,108.41-45.17,136-3,4.45-5.25,13.37-3.19,16.22,1.54,2.14,4.28,2.58,5.77,3.28Z"
                    id="path1264"/>
              <path class="cls-50"
                    d="M585.94,760.63c-1.49.09-3.75,1-6.11-.12C576.7,759,574.66,750.38,573,745c-13.34-26.29-25.5-73-45.47-137.89a15.07,15.07,0,0,1,5-1.12,14.41,14.41,0,0,1,4.9-1.3c21.51,64.21,31.15,110.66,52.17,136.23,3.47,4.23,6.05,13.43,4.4,16.1-1.24,2-3.73,2.27-5.05,2.87Z"
                    id="path1266"/>
              <path class="cls-51"
                    d="M568.94,764c-1.51,0-3.86.7-6.07-.6-3-1.74-4-10.49-5-16-5.37-28-15.29-74.95-29.36-140.88a15,15,0,0,1,5.06-.73,15.13,15.13,0,0,1,5-.91c16.63,65.52,20.48,114.58,36.22,139.78,2.87,4.58,4.47,13.85,2.53,16.37-1.47,1.91-4,2-5.36,2.46Z"
                    id="path1268"/>
              <path class="cls-52"
                    d="M551.62,765.92c-1.49-.15-3.92.4-6-1.08-2.73-2-2.76-10.76-3.17-16.3-2.13-28.29-6.58-75.82-13-142.57a15.08,15.08,0,0,1,5.12-.32,15,15,0,0,1,5.11-.49c9,66.53,14.25,114.71,20,142,1.13,5.43,2.86,14.14.62,16.49-1.67,1.78-4.18,1.63-5.61,2Z"
                    id="path1270"/>
              <path class="cls-50"
                    d="M485.45,760.62c1.5.1,3.76,1,6.11-.11,3.13-1.49,5.18-10.12,6.85-15.49,13.34-26.3,25.51-73,45.48-137.9a15.11,15.11,0,0,0-5-1.13A14.6,14.6,0,0,0,534,604.7c-21.51,64.22-31.16,110.66-52.18,136.23-3.46,4.23-6,13.43-4.39,16.11,1.24,2,3.74,2.26,5.05,2.86Z"
                    id="path1272"/>
              <path class="cls-51"
                    d="M502.45,764c1.5,0,3.85.71,6.07-.6,3-1.73,4-10.5,5-16,5.37-28,15.28-74.95,29.36-140.88a15.06,15.06,0,0,0-5.07-.73,14.79,14.79,0,0,0-5-.9c-16.64,65.52-20.49,114.58-36.23,139.77-2.86,4.59-4.48,13.85-2.52,16.37,1.46,1.9,4,2,5.36,2.46Z"
                    id="path1274"/>
              <path class="cls-52"
                    d="M519.78,765.91c1.48-.14,3.91.4,6-1.07,2.73-2,2.75-10.77,3.17-16.31,2.12-28.27,6.57-75.81,13-142.56a14.89,14.89,0,0,0-5.13-.32,14.65,14.65,0,0,0-5.11-.5c-9,66.53-14.25,114.72-19.95,142-1.14,5.44-2.86,14.14-.63,16.5,1.68,1.77,4.18,1.63,5.62,2Z"
                    id="path1276"/>
              <path class="cls-53"
                    d="M537.23,766.51c1.46-.27,3.94.08,5.82-1.56,2.49-2.17,1.5-10.93,1.29-16.48-1.16-28.31-2.21-76-3.5-143a15.43,15.43,0,0,0-5.15.09,15.37,15.37,0,0,0-5.14-.09c-1.29,67-2.35,114.63-3.5,143-.22,5.55-1.2,14.31,1.29,16.48,1.88,1.64,4.36,1.29,5.82,1.56Z"
                    id="path1278"/>
              <path class="cls-54"
                    d="M574.19,721.69c-1.15.09-2.88,1-4.69-.12-2.4-1.49-4-10.12-5.25-15.49-10.21-26.3-19.53-73-34.82-137.9a9.27,9.27,0,0,1,3.8-1.12,9.12,9.12,0,0,1,3.75-1.3c16.47,64.22,23.86,110.66,40,136.23,2.66,4.23,4.64,13.44,3.38,16.11-1,2-2.87,2.26-3.88,2.86Z"
                    id="path1280"/>
              <path class="cls-55"
                    d="M561.15,725c-1.14,0-2.95.71-4.65-.6-2.25-1.73-3-10.5-3.85-16q-6.18-42-22.5-140.88a8.94,8.94,0,0,1,3.88-.73,9.1,9.1,0,0,1,3.85-.9c12.75,65.52,15.69,114.58,27.75,139.76,2.2,4.59,3.43,13.86,1.93,16.38-1.11,1.9-3,2-4.1,2.45Z"
                    id="path1282"/>
              <path class="cls-56"
                    d="M547.9,727c-1.14-.15-3,.39-4.57-1.08-2.1-2-2.11-10.77-2.43-16.31-1.63-28.28-5-75.82-9.95-142.56a8.93,8.93,0,0,1,3.92-.33,9.18,9.18,0,0,1,3.91-.49c6.91,66.54,10.92,114.72,15.29,142,.87,5.44,2.19,14.14.48,16.5-1.29,1.77-3.21,1.63-4.31,2Z"
                    id="path1284"/>
              <path class="cls-54"
                    d="M497.21,721.68c1.15.09,2.89,1,4.69-.12,2.4-1.49,4-10.12,5.25-15.49,10.21-26.3,19.52-73,34.82-137.89a9,9,0,0,0-3.8-1.13,9.21,9.21,0,0,0-3.75-1.3C518,630,510.56,676.42,494.46,702c-2.66,4.22-4.63,13.43-3.37,16.09,1,2,2.86,2.28,3.87,2.87Z"
                    id="path1286"/>
              <path class="cls-55"
                    d="M510.23,725c1.15,0,3,.71,4.65-.6,2.25-1.73,3-10.49,3.86-16,4.11-28,11.71-75,22.49-140.88a9.09,9.09,0,0,0-3.88-.73,8.92,8.92,0,0,0-3.85-.89c-12.74,65.51-15.69,114.58-27.75,139.76-2.19,4.59-3.42,13.85-1.94,16.37,1.13,1.9,3.06,2,4.11,2.45Z"
                    id="path1288"/>
              <path class="cls-56"
                    d="M523.5,727c1.14-.15,3,.39,4.57-1.08,2.1-2,2.11-10.76,2.43-16.3,1.63-28.29,5-75.82,10-142.57a86.1,86.1,0,0,1-7.83-.82c-6.91,66.54-10.92,114.72-15.29,142-.87,5.44-2.19,14.14-.47,16.49,1.28,1.78,3.2,1.63,4.3,2Z"
                    id="path1290"/>
              <path class="cls-57"
                    d="M536.89,727.56c1.12-.27,3,.07,4.46-1.55,1.91-2.17,1.15-10.94,1-16.49-.88-28.32-1.68-76-2.68-142.94a86.29,86.29,0,0,1-7.88,0Q530.29,667,529.1,709.52c-.18,5.55-.94,14.32,1,16.49,1.43,1.62,3.33,1.28,4.46,1.55Z"
                    id="path1292"/>
            </g>
            <g id="g1306">
              <path class="cls-58"
                    d="M457.34,650.82c-3.58.15-8,2.2-20.81,13.33-5.61,11.43-11.26,22.94-19,32.86a29,29,0,0,1-6.85,3.66c-2.19.73-18.39.2-18.78-.48-5-4.57-12.74-1.31-10.17,3.51-2,1.89,2.4,8.81,5.94,5.94,3.24-2.64,14.53-.15,18.29-1.51-1.43,3.39-11.63,5.59-18.76,6.11-6.51.27-6.07,6.77-3.39,11.75,3.05,2,.55-.51,1.66.91,2.91,4.32,9.15,3.76,9.36-.47s15.43-10.06,17.71-13.42c-2.79,6.64-9.23,12.84-12.42,19.34-3.43,3.44-5.51,4.13-1.08,11.07,4.92-.56,5.21-1.87,8.24,1,6.73-.74,7.82-2.74,6.73-8.06-1.16-5.63,3.55-15.79,5.12-18.67,1.44-2.65,1.8-5.4,3.2-7.06,2.44-2.89,14.06-8.66,17-7.07,5.49,2.91,9.66,1.15,10.35-4.16-1.76-1.36-.43-8.89-4.23-9.22-3.1-.25-4.93.7-7.79,3-4.48,3.67-6.78,5.62-8.26,5.21-3.5-1,6.34-5.79,15.29-17.52,12.39-16.26,13.25-24.51,12.67-30.07Z"
                    id="path1296"/>
              <path class="cls-59"
                    d="M382.45,706.68c-4.5-2.63-7.07-2.53-8.82-.58-1,1.08-2.17.52-1.46-1.17,3-7,7.74-7.92,12-4.62,1.19,1.11,2.15,2.06,3.11,3-.71,1.06-4.27,2.54-4.85,3.36Z"
                    id="path1298"/>
              <path class="cls-60"
                    d="M446.72,700.39c4.78-3.24,9.24-3.88,11.69-2.06,1.34,1,2.67.28,1.49-1.38-4.95-7-10.74-7.3-15.11-3.38-1.18,1.28-2.13,2.38-3.07,3.48,1.5,1.63,4.8,3.48,5,3.34Z"
                    id="path1300"/>
              <path class="cls-61"
                    d="M409.2,740.19c-2.93,5.78-4.47,9.74-3.2,12.84.74,1.82-.1,3.48-1.93,1.9-7.45-6.38-7.47-13.71-2.7-18.68a43.25,43.25,0,0,1,4.8-3.94c1.93,1.81,3.17,7.6,3,7.88Z"
                    id="path1302"/>
              <path class="cls-62"
                    d="M390.6,725c-4.43,1.83-6,4.16-5.79,7.22.09,1.68-1,2.31-1.64.35-5.42-12.56.2-14.91,8.32-14.45a16.89,16.89,0,0,1-.89,6.88Z"
                    id="path1304"/>
            </g>
          </g>
          <g id="g1320">
            <path class="cls-63" d="M428.71,697c-2.91-1.69-3.08-3.58-2.33-4.84,1.62-2.68,3.25-1.39,6.31,1.09"
                  id="path1310"/>
            <path class="cls-63" d="M432.49,692.93c-2.91-1.7-3.08-3.58-2.32-4.84,1.62-2.68,3.24-1.39,6.3,1.08"
                  id="path1312"/>
            <path class="cls-64" d="M436.73,689c-3.22-2.2-3.41-4.65-2.56-6.3,1.78-3.48,3.58-1.81,6.94,1.41"
                  id="path1314"/>
            <path class="cls-65" d="M441.3,684.14c-3.41-2.5-3.62-5.26-2.72-7.12,1.89-3.94,3.8-2,7.38,1.59"
                  id="path1316"/>
            <path class="cls-66" d="M446.11,678.94c-3.18-2.64-4.17-5.26-2.72-7.56,2.27-3.61,3.8-2.16,7.37,1.69"
                  id="path1318"/>
          </g>
          <g id="g1366">
            <path class="cls-67"
                  d="M489.19,396.44c-2.28,2-9.8,2-20.09,2.68-16.58.58-26.18-4.42-28.32-15,6.24,7.4,13.65,11.06,22.08,9,11.37-2.81,17.88-4.83,20.48-4.33,1.74.62,4.29,3.78,5.85,7.69Z"
                  id="path1322"/>
            <g id="g1364">
              <path class="cls-21"
                    d="M527.57,622.44c-.09,4.75-.14,10.08-.18,15.55h0l-11.85,2.46c0,5.4,13.33,61.92,20.21,61.92s20.23-56.56,20.21-62L544.06,638h0c0-5.47-.1-10.8-.19-15.55-2.49,2.07-5.24,5.67-8.13,8.92-2.9-3.25-5.64-6.85-8.13-8.92Z"
                    id="path1324"/>
              <g id="g1338">
                <path class="cls-68"
                      d="M513.84,646.45l-10.61-6c-4.47,3.21-7.77,15.1-.14,24.82,9.51,12.11,13.37,20.89,15.69,30.69,6.93-8.86,9.32-18.17,4.91-27.26-5.92-12.26-9.79-19.17-9.85-22.24Z"
                      id="path1326"/>
                <path class="cls-68"
                      d="M522.52,638l-10.61-6c-4.47,3.2-13.8,14.72-6.17,24.44,9.51,12.1,19.39,21.26,21.72,31.06,6.93-8.85,9.88-18.17,5.48-27.26C527,648,522.58,641,522.52,638Z"
                      id="path1328"/>
                <path class="cls-68"
                      d="M557.55,646.43l10.61-6c4.47,3.21,7.77,15.1.14,24.82-9.51,12.11-13.37,20.88-15.69,30.69-6.93-8.85-9.31-18.18-4.91-27.26,5.93-12.26,9.79-19.17,9.85-22.25Z"
                      id="path1330"/>
                <path class="cls-68"
                      d="M548.87,638l10.62-6c4.46,3.2,13.8,14.71,6.17,24.43-9.52,12.11-19.4,21.27-21.73,31.08-6.92-8.86-9.87-18.18-5.47-27.27,5.93-12.25,10.36-19.17,10.41-22.24Z"
                      id="path1332"/>
                <path class="cls-68"
                      d="M499.08,633.66l-10.61-6c-4.47,3.2-7.78,15.1-.14,24.82,9.51,12.11,13.37,20.89,15.7,30.69,6.92-8.86,9.3-18.18,4.9-27.26-5.93-12.26-9.79-19.17-9.85-22.25Z"
                      id="path1334"/>
                <path class="cls-68"
                      d="M572.31,633.65l10.62-6c4.46,3.21,7.77,15.1.13,24.82-9.51,12.11-13.36,20.89-15.69,30.69-6.92-8.85-9.31-18.17-4.9-27.26,5.92-12.26,9.79-19.18,9.84-22.24Z"
                      id="path1336"/>
              </g>
              <g id="g1362">
                <path class="cls-69"
                      d="M449.92,521.77c.2,9.7-1.52,74.35-2.06,83.48s-4.57,15.3-8.88,18.86c-3.94-5.42-6.3-12.73-6.86-21.41-.29-4.41.53-65.59.87-78.17,7.25-19.16,12.63-19.89,16.93-2.76Z"
                      id="path1340"/>
                <path class="cls-69"
                      d="M407.83,506l-2.75,88.89c-.86,7.89,9.42,54.81,15,64.07C434,653,437,621.14,434.35,590.12s.44-57.81,2.57-63.38c.18-7-1-14.35-1.06-21.65-8.87.53-19.17.34-28,.87Z"
                      id="path1342"/>
                <path class="cls-69"
                      d="M391.34,520.49l1.88,88.92c-.44,7.92,12.27,54.22,18.37,63.15,14.11-10.93,11.28-55.63,9.11-69.16-4.31-26.95-3.58-58.17-2.09-63.24-.18-7-.36-15.42-.81-22.72l-26.46,3Z"
                      id="path1344"/>
                <path class="cls-69"
                      d="M379.1,541.55l23.4-.59c-2,9.7-.4,39.83,3.64,62.79,3.79,21.53,9.07,77.37-13.38,90.78-13.92-29.46-3.32-58.1-10.34-83.68-5.48-27.2-6.56-49.9-3.32-69.3Z"
                      id="path1346"/>
                <path class="cls-69"
                      d="M468.57,505.45c-.09,9.7-3.77,74.26-4.59,83.38s-5,15.14-9.45,18.55c-3.78-5.53-5.91-12.91-6.22-21.6-.14-4.43,2.53-65.56,3.25-78.12,7.83-18.92,13.23-19.48,17-2.22Z"
                      id="path1348"/>
                <path class="cls-69"
                      d="M427,452.78c-.63,20.82-1,66-.85,69.85.29,8.69,3.73,19.74,7.51,25.28,4.41-3.41,8.62-9.47,9.44-18.56.67-7.45.91-44.1,1-62.46A78.81,78.81,0,0,1,430.59,456s-3.46-3.07-3.6-3.25Z"
                      id="path1350"/>
                <path class="cls-69"
                      d="M443.69,466.2c-.41,22.44-.17,57.79-.07,60.66.3,8.69,2.43,16.07,6.21,21.61a26.52,26.52,0,0,0,9.88-18.77c.5-5.59,2.06-29.54,2.2-47.93-5.93-1.88-13.41-11.59-18.22-15.57Z"
                      id="path1352"/>
                <path class="cls-69"
                      d="M429.31,450.9,413.38,428c-3.22,11.31-7.15,92.46-2.53,99.1a40.78,40.78,0,0,0,7.21,21.59c4.41-3.42,11-9.57,9.09-18.75s.23-69.54,2.16-79Z"
                      id="path1354"/>
                <path class="cls-69"
                      d="M396.66,501.93c-.72,12.56-1.23,21.06-1.08,25.48.3,8.69,2.43,16.07,6.21,21.61,4.41-3.41,10-9.46,9.44-18.56-2.22-35.14,1.63-68.23,6.11-100.05-3.78-2.78-10.15-5.76-13.93-8.53-7.56,42.84-10.08,69.44-6.75,80.05Z"
                      id="path1356"/>
                <path class="cls-70"
                      d="M380.71,524.93,385,541.27c.3,8.69,5.68,15.87,9.45,21.41,4.41-3.43,8.41-9,7.29-18.07-6.46-51.91-4.15-86.24,6.75-128.54-24.66,16.81-36.09,52.26-27.81,108.86Z"
                      id="path1358"/>
                <path class="cls-69"
                      d="M382,541l-22.63-7.5c-2.87,22.59,1.55,51,7.65,88.37,5.23,32.12,2.48,57.55-1.52,73.86,24.14-3.3,34.34-34.38,22.24-92.82A261.67,261.67,0,0,1,382,541Z"
                      id="path1360"/>
              </g>
            </g>
          </g>
          <path class="cls-71" d="M381.29,650.31c.53-15-2-31.29-4.83-45.06a279.82,279.82,0,0,1-6-56" id="path1368"/>
          <g id="g1434">
            <g id="g1386">
              <path class="cls-70"
                    d="M381.09,408.12l14.84,2.5c-.73,3.17-4.49,22.69-5.18,26-5.55,27.11-9.22,59.06-5,94.11,1.55,13,4.31,23.63,8.36,31.85-16.28-1.85-26.72-17.73-25.37-45.42-2.84-32.35-1.59-58.08,3.65-77.42,1.54-5.68,6.48-27.05,8.71-31.63Z"
                    id="path1370"/>
              <path class="cls-69"
                    d="M372.08,411.64l7.29,8.3c-2.07,1.48,1.44,7.85-.45,20.23-1.22,7-5.41,15.3-6.27,24.27-2.87,29.7-2.88,66.9,6.06,90.68-16.29-1.85-21.88-16.59-22.41-44.32-.43-22.93-.51-50,5.26-81.16a28.62,28.62,0,0,1,10.52-18Z"
                    id="path1372"/>
              <path class="cls-72"
                    d="M412.77,433.51l-15-1.75C395,445.94,392.86,456,392.34,461c-1,9.92,2,19,5.45,25.78,5.55-3.34,8.12-10.63,10.46-20.84s2.92-21.45,4.52-32.46Z"
                    id="path1374"/>
              <path class="cls-73"
                    d="M451.78,465.47l-13.34.14c-.46,12.24-.79,20.52-.57,24.84.43,8.46,2.54,15.63,6.16,21,4.05-3.37,7.89-9.33,8.49-18.18s-.65-18.35-.74-27.79Z"
                    id="path1376"/>
              <path class="cls-74"
                    d="M466.15,471.78l-13.34.62c0,12.25-.07,20.54.3,24.84.73,8.44,3.09,15.54,6.89,20.77,3.93-3.52,7.56-9.6,7.86-18.46s-1.3-18.32-1.71-27.77Z"
                    id="path1378"/>
              <path class="cls-75"
                    d="M438.19,458.59l-13.3-.94c-1.45,12.17-2.45,20.4-2.59,24.71-.26,8.47,1.27,15.79,4.44,21.43,4.31-3,8.61-8.66,9.94-17.43s.83-18.35,1.51-27.77Z"
                    id="path1380"/>
              <path class="cls-76"
                    d="M425.71,444.24l-14.6-6.05c-2.48,9.86-5.85,42.3.14,56,4.85-3.3,9.76-9.49,11.39-19.24s2.14-20.21,3.07-30.71Z"
                    id="path1382"/>
              <path class="cls-77"
                    d="M406.41,428.15l-23.33,2.07c-5.37,13.37-8.89,25.22-10.6,36,10.82-1.92,18.66-7.22,21.47-16.91,3.8-13.07,10.48-18.81,12.46-21.12Z"
                    id="path1384"/>
            </g>
            <g id="g1408">
              <g id="g1394">
                <path class="cls-78"
                      d="M430.07,781.11c8.91,7.13,17.06-9.17,9.15-30.73-5.84-16-34.42-9.76-18.5,11.7.75,1,1.82.53,1.67-.62-.9-4.4,1.9-7,6.23-6.15,11.84,2.22,12.22,24.65-.65,19.55-2.36-.15-.25,4.37,2.1,6.25Z"
                      id="path1388"/>
                <path class="cls-78"
                      d="M459.31,781.11c-8.92,7.13-17.07-9.17-9.16-30.73,5.85-16,34.42-9.76,18.5,11.7-.76,1-1.81.53-1.66-.62.9-4.4-1.91-7-6.24-6.15-11.84,2.22-12.21,24.65.66,19.55,2.34-.15.24,4.37-2.1,6.25Z"
                      id="path1390"/>
                <path class="cls-78"
                      d="M443.83,711.84V712c-1.16,3.74-5.49,8.42-8.85,11.93-5.23,5.44-4,13.67-.37,18.05a31.78,31.78,0,0,1,6.48,14.34,55.13,55.13,0,0,1,.88,17.32c-.37,4.42-3,6.69-5.56,8.67-1.27,1,.54,3.41,4.75,6.57a5.73,5.73,0,0,1,2.33,3.39c.24.53,2.19.53,2.42,0a5.82,5.82,0,0,1,2.33-3.39c4.21-3.16,6-5.56,4.75-6.57-2.51-2-5.18-4.26-5.56-8.67a55.45,55.45,0,0,1,.88-17.32A31.62,31.62,0,0,1,454.8,742c3.61-4.38,4.85-12.61-.37-18.05-3.38-3.51-7.71-8.19-8.87-11.93v-.15c-.06-.73-.46-1.09-.87-1.09s-.8.36-.86,1.09Z"
                      id="path1392"/>
              </g>
              <path class="cls-10" d="M438.26,763.58h12.88a4,4,0,1,1,0,7.9H438.26a4,4,0,1,1,0-7.9Z" id="path1396"/>
              <g id="g1404">
                <path class="cls-78"
                      d="M612.08,781.11c8.9,7.13,17-9.17,9.16-30.73-5.85-16-34.43-9.76-18.52,11.7.76,1,1.83.53,1.68-.62-.91-4.4,1.9-7,6.23-6.15,11.84,2.22,12.21,24.65-.66,19.55-2.35-.15-.25,4.37,2.11,6.25Z"
                      id="path1398"/>
                <path class="cls-78"
                      d="M641.32,781.11c-8.91,7.13-17.07-9.17-9.16-30.73,5.84-16,34.42-9.76,18.5,11.7-.75,1-1.81.53-1.66-.62.9-4.4-1.91-7-6.24-6.15-11.83,2.22-12.21,24.65.67,19.55,2.34-.15.24,4.37-2.11,6.25Z"
                      id="path1400"/>
                <path class="cls-78"
                      d="M625.83,711.84V712c-1.17,3.74-5.5,8.42-8.86,11.93-5.22,5.44-4,13.67-.37,18.05a31.67,31.67,0,0,1,6.48,14.34,55.34,55.34,0,0,1,.89,17.32c-.38,4.42-3.06,6.69-5.57,8.67-1.27,1,.55,3.41,4.75,6.57a5.77,5.77,0,0,1,2.34,3.39c.23.53,2.18.53,2.41,0a5.82,5.82,0,0,1,2.34-3.39c4.2-3.16,6-5.56,4.75-6.57-2.51-2-5.19-4.26-5.57-8.67a55.66,55.66,0,0,1,.89-17.32A31.7,31.7,0,0,1,636.79,742c3.61-4.38,4.84-12.61-.37-18.05-3.37-3.51-7.7-8.19-8.87-11.93v-.15c-.06-.73-.46-1.09-.86-1.09s-.81.36-.87,1.09Z"
                      id="path1402"/>
              </g>
              <path class="cls-10" d="M620.27,763.58h12.88a4,4,0,1,1,0,7.9H620.27a4,4,0,1,1,0-7.9Z" id="path1406"/>
            </g>
            <g id="g1432">
              <path class="cls-69"
                    d="M621.48,521.77c-.2,9.7,1.51,74.35,2,83.48s4.58,15.3,8.89,18.86c4-5.42,6.3-12.73,6.86-21.41.29-4.41-.53-65.59-.87-78.17-7.25-19.16-12.63-19.89-16.93-2.76Z"
                    id="path1410"/>
              <path class="cls-69"
                    d="M663.58,506l2.75,88.89c.87,7.89-9.43,54.81-15,64.07-13.92-5.94-16.86-37.78-14.24-68.8s-.43-57.81-2.56-63.38c-.18-7,1-14.35,1.07-21.65,8.86.53,19.16.34,28,.87Z"
                    id="path1412"/>
              <path class="cls-69"
                    d="M680.06,520.49l-1.89,88.92c.46,7.92-12.27,54.22-18.36,63.15-14.11-10.93-11.27-55.63-9.11-69.16,4.31-26.95,3.58-58.17,2.09-63.24.18-7,.36-15.42.81-22.72l26.46,3Z"
                    id="path1414"/>
              <path class="cls-69"
                    d="M692.3,541.55,668.91,541c2,9.7.39,39.83-3.65,62.79-3.78,21.53-9.06,77.37,13.39,90.78,13.92-29.46,3.32-58.1,10.34-83.68,5.47-27.2,6.56-49.91,3.31-69.3Z"
                    id="path1416"/>
              <path class="cls-69"
                    d="M602.83,505.45c.09,9.7,3.78,74.26,4.59,83.38s5.05,15.14,9.45,18.55c3.79-5.53,5.92-12.91,6.21-21.6.16-4.43-2.52-65.56-3.24-78.12-7.82-18.92-13.23-19.48-17-2.22Z"
                    id="path1418"/>
              <path class="cls-69"
                    d="M644.41,452.78c.63,20.82,1,66,.86,69.85-.31,8.69-3.73,19.74-7.51,25.28-4.41-3.41-8.64-9.47-9.45-18.56-.67-7.45-.91-44.1-1-62.46A78.35,78.35,0,0,0,640.8,456s3.47-3.07,3.61-3.25Z"
                    id="path1420"/>
              <path class="cls-69"
                    d="M627.69,466.2c.41,22.44.17,57.79.07,60.66-.29,8.69-2.43,16.07-6.21,21.61a26.56,26.56,0,0,1-9.88-18.77c-.5-5.59-2.06-29.54-2.21-47.93,5.93-1.88,13.43-11.59,18.23-15.57Z"
                    id="path1422"/>
              <path class="cls-69"
                    d="M642.07,450.9,658,428c3.22,11.31,7.15,92.46,2.54,99.1a40.87,40.87,0,0,1-7.22,21.59c-4.41-3.42-11-9.57-9.09-18.75s-.23-69.54-2.16-79Z"
                    id="path1424"/>
              <path class="cls-69"
                    d="M674.75,501.93c.71,12.56,1.23,21.06,1.07,25.48-.29,8.69-2.42,16.07-6.2,21.61-4.41-3.41-10-9.46-9.46-18.56,2.23-35.14-1.62-68.23-6.1-100.05,3.78-2.78,10.15-5.76,13.94-8.53,7.55,42.84,10.08,69.44,6.75,80.05Z"
                    id="path1426"/>
              <path class="cls-70"
                    d="M690.68,524.93l-4.33,16.34c-.3,8.69-5.67,15.87-9.45,21.41-4.41-3.43-8.41-9-7.29-18.07,6.47-51.91,4.16-86.24-6.75-128.54,24.66,16.81,36.09,52.26,27.81,108.86Z"
                    id="path1428"/>
              <path class="cls-69"
                    d="M689.41,541,712,533.5c2.89,22.59-1.55,51-7.64,88.37-5.23,32.12-2.48,57.55,1.52,73.86-24.14-3.3-34.34-34.38-22.24-92.82A261.76,261.76,0,0,0,689.4,541Z"
                    id="path1430"/>
            </g>
          </g>
          <path class="cls-71" d="M690.1,650.31c-.53-15,2-31.29,4.83-45.06a280.55,280.55,0,0,0,6-56" id="path1436"/>
          <g id="g1466">
            <g id="g1458">
              <path class="cls-70"
                    d="M690.32,408.12l-14.86,2.5c.74,3.17,4.5,22.69,5.19,26,5.55,27.11,9.22,59.06,5,94.11q-2.34,19.5-8.37,31.85c16.29-1.85,26.73-17.73,25.38-45.42,2.83-32.35,1.59-58.08-3.66-77.42-1.53-5.68-6.48-27.05-8.7-31.63Z"
                    id="path1438"/>
              <path class="cls-69"
                    d="M699.32,411.64l-7.3,8.3c2.08,1.48-1.43,7.85.45,20.23,1.23,7,5.41,15.3,6.28,24.27,2.88,29.7,2.88,66.9-6.06,90.68,16.29-1.85,21.88-16.59,22.41-44.32.44-22.93.51-50-5.25-81.16a28.59,28.59,0,0,0-10.53-18Z"
                    id="path1440"/>
              <path class="cls-72"
                    d="M658.63,433.5l15-1.75c2.77,14.19,4.88,24.22,5.39,29.28,1,9.91-2,19-5.44,25.78-5.55-3.34-8.12-10.64-10.46-20.85s-2.92-21.45-4.52-32.46Z"
                    id="path1442"/>
              <path class="cls-73"
                    d="M619.61,465.45l13.34.14c.46,12.24.79,20.53.58,24.84-.43,8.46-2.54,15.63-6.16,21-4.06-3.38-7.89-9.33-8.5-18.18s.66-18.35.74-27.8Z"
                    id="path1444"/>
              <path class="cls-74"
                    d="M605.25,471.78l13.34.61c0,12.25.06,20.54-.3,24.85-.72,8.43-3.09,15.53-6.89,20.76-3.94-3.51-7.56-9.6-7.86-18.46s1.3-18.32,1.71-27.76Z"
                    id="path1446"/>
              <path class="cls-75"
                    d="M633.21,458.58l13.31-.95C648,469.81,649,478,649.1,482.35c.26,8.47-1.27,15.79-4.44,21.43-4.31-3-8.62-8.65-9.93-17.43s-.84-18.35-1.52-27.77Z"
                    id="path1448"/>
              <path class="cls-76"
                    d="M645.68,444.23l14.6-6.05c2.49,9.86,5.85,42.29-.12,56-4.87-3.29-9.77-9.48-11.41-19.24s-2.13-20.22-3.07-30.7Z"
                    id="path1450"/>
              <g id="g1456">
                <path class="cls-77"
                      d="M665,428.14l23.33,2.07c5.38,13.36,8.89,25.21,10.61,36-10.83-1.9-18.67-7.22-21.48-16.9-3.8-13.07-10.47-18.81-12.46-21.12Z"
                      id="path1452"/>
                <path class="cls-79"
                      d="M596.37,461.34a41.93,41.93,0,0,0,5.43-1.53c-8.54-5.34-15.61-11.82-24-24.71-8.62-13.21,3.78-36.81,8.87-49.32,10.63-7.86,20.64-19.41,23.82-34.64,1.26-8.19-21.36-5.23-36.92,2.11-19,9-21.61,6.48-28.39,8-2.41,11.65,2.64,12.63,7.49,12.06-10.48,16.79-14.85,33.49-16.94,57.52-2.09-24-6.46-40.73-16.94-57.52,4.85.57,9.9-.41,7.49-12.06-6.78-1.51-9.37,1-28.4-8-15.55-7.34-38.18-10.3-36.91-2.11,3.18,15.23,13.19,26.78,23.82,34.64,5.09,12.51,17.49,36.11,8.87,49.32-8.42,12.89-15.51,19.37-24.05,24.71a42.51,42.51,0,0,0,5.44,1.53c-1.29,1.76-12.36,5.21-13.66,4.29-8.47-6-16.73-20.05-23.94-28.22-20.41-23.14-30.6-41-27-55.4,5.13-15.51,23.42-32.93-.81-29.91s-44.31,36.22-50.76,76.17c-2.4,14.83-3.78,27.23-5.4,37.39,13.22-4.72,19.08-9.41,22.59-15.22a134.68,134.68,0,0,0-3.55,15.74c10.81-1.91,18.66-7.22,21.48-16.91a50.5,50.5,0,0,1,4-9.89c3.33,1.18,7.64,1.11,12.88-.17,2,4.75,16.9,21.34,24.9,33.53,9,13.76,22.64,24.27,27.11,24.85,2.25.29,2.94-4.68,2.44-11.53,23.64.17,47.26.31,70.42-.48,23.16.79,46.78.65,70.41.48-.49,6.85.2,11.82,2.44,11.53,4.48-.58,18.07-11.09,27.1-24.85,8-12.19,22.92-28.78,24.91-33.53,5.24,1.28,9.55,1.35,12.88.17a51.1,51.1,0,0,1,4,9.89c2.81,9.69,10.66,15,21.48,16.91a134.93,134.93,0,0,0-3.57-15.74c3.52,5.81,9.38,10.5,22.6,15.22-1.61-10.16-3-22.56-5.39-37.39-6.45-39.95-26.54-73.17-50.77-76.17s-5.93,14.4-.8,29.91c3.6,14.41-6.59,32.26-27,55.4-7.22,8.17-15.47,22.23-24,28.22-1.29.92-12.37-2.53-13.66-4.29Z"
                      id="path1454"/>
              </g>
            </g>
            <g id="g1464">
              <path class="cls-67"
                    d="M582.21,396.42c2.28,2,9.8,2,20.09,2.68,16.58.58,26.18-4.42,28.32-15-6.23,7.41-13.64,11.07-22.08,9-11.37-2.82-17.88-4.84-20.48-4.33-1.74.62-4.29,3.77-5.85,7.68Z"
                    id="path1460"/>
              <path class="cls-80"
                    d="M621,352.87c18.59,2,17.7,14.15.32,31.32-3.32,3.28-4.47,3.18-5.17-.23-1.24-6-7.86-9.5-11.33-4.95-2.37,3.09-1.84,4.87-9.71,3.77-10,8.33-18,14.19-5,13.71,5.71-.22,10.12,3.11,17.59,2.82-2.21,4.27-2.61,4.77-3.8,5.13-7.23,1.43-14.85-3.08-22.14-1.74-16,2.95,25.6-43.15,25.09-45-1.32-4.64,10-13,14.17-4.86Z"
                    id="path1462"/>
            </g>
          </g>
          <path class="cls-81" d="M620.57,352.46a28.2,28.2,0,0,1-8.82,12.06" id="path1468"/>
        </g>
      </g>
      <path class="cls-11"
            d="M624.54,361.38a1.61,1.61,0,0,0-1.76-1.35,1.47,1.47,0,0,0-1.34,1.68,1.62,1.62,0,0,0,1.76,1.35,1.48,1.48,0,0,0,1.34-1.68"
            id="path1474"/>
      <g id="g1482">
        <path class="cls-82" d="M465.68,357.52c5-.27,10.11,1.92,16.75,4.32,1.87.68,8.37,3.24,10.34,2.94" id="path1476"/>
        <path class="cls-83" d="M519,373.36a97.56,97.56,0,0,1-11-2.3" id="path1478"/>
        <path class="cls-84" d="M469.64,357.89c2.1,3.83,4.59,9,9,11.51,3.32,1.86,7-1.08,9.72-6.12" id="path1480"/>
      </g>
      <path class="cls-11"
            d="M476.88,367.55l-2.45-2.45q-1.79-2.27,2.08-6c1.88.81,3.39,1.44,4.9,2.07q-1.5,5.08-4.53,6.41"
            id="path1484"/>
      <path class="cls-84" d="M601.76,357.88c-2.1,3.84-4.58,9.05-9,11.52-3.32,1.87-7-1.08-9.72-6.11" id="path1486"/>
      <path class="cls-11" d="M594.5,367.55,597,365.1q1.8-2.27-2.07-6c-1.89.81-3.39,1.44-4.9,2.07q1.5,5.08,4.52,6.41"
            id="path1488"/>
      <g id="g1528">
        <g id="g1522">
          <path class="cls-82" d="M605.73,357.52c-5-.27-10.11,1.92-16.74,4.32-1.88.68-8.37,3.24-10.35,2.94"
                id="path1490"/>
          <path class="cls-83" d="M552.35,373.36a97.1,97.1,0,0,0,11-2.29" id="path1492"/>
          <g id="g1514">
            <g id="g1502">
              <path class="cls-85" d="M469.59,459.81c10.61,3.72,20.2,3,27.39-4.1,1.14-1.11,2.23-2.18,3.24-3.2"
                    id="path1494"/>
              <path class="cls-85" d="M501.51,446a65.92,65.92,0,0,1-5.34,18.52c7.47-1.94,13.39-5.37,17-10.53"
                    id="path1496"/>
              <path class="cls-85" d="M535.57,468c-5.84-7.08-9.43-15.27-9.83-24.45" id="path1498"/>
              <path class="cls-85" d="M511.68,445c.66,7.16,2.71,13.28,6,18a24.09,24.09,0,0,0,8.68-13.54" id="path1500"/>
            </g>
            <g id="g1512">
              <path class="cls-85" d="M601.8,459.81c-10.61,3.72-20.19,3-27.39-4.1-1.13-1.11-2.22-2.18-3.23-3.2"
                    id="path1504"/>
              <path class="cls-85" d="M569.89,446a65.59,65.59,0,0,0,5.34,18.52c-7.48-1.94-13.39-5.37-17-10.53"
                    id="path1506"/>
              <path class="cls-85" d="M559.69,445c-.65,7.16-2.7,13.28-6,18A24,24,0,0,1,545,449.48" id="path1508"/>
              <path class="cls-85" d="M535.82,468c5.84-7.08,9.43-15.27,9.83-24.45" id="path1510"/>
            </g>
          </g>
          <g id="g1520">
            <path class="cls-86" d="M397.63,403.42c-8.41,6-23.91,49.48-25.1,62.24-2.76,29.5-2.64,66,6.18,89.47"
                  id="path1516"/>
            <path class="cls-86" d="M673.75,403.42c8.42,6,23.92,49.48,25.11,62.24,2.75,29.5,2.64,66-6.18,89.47"
                  id="path1518"/>
          </g>
        </g>
        <path class="cls-87"
              d="M450.4,352.87c-18.6,2-17.71,14.15-.33,31.32,3.33,3.28,4.47,3.18,5.18-.23,1.24-6,7.86-9.5,11.33-4.95,2.36,3.09,1.84,4.87,9.71,3.77,9.95,8.33,18,14.19,5,13.71-5.73-.22-10.15,3.11-17.6,2.82,2.21,4.27,2.6,4.77,3.8,5.13,7.23,1.43,14.84-3.08,22.14-1.74,16,2.95-25.61-43.15-25.09-45,1.31-4.64-10-13-14.17-4.86Z"
              id="path1524"/>
        <path class="cls-81" d="M450.84,352.46a28.09,28.09,0,0,0,8.81,12.06" id="path1526"/>
      </g>
      <path class="cls-11"
            d="M446.87,361.38a1.61,1.61,0,0,1,1.76-1.35,1.47,1.47,0,0,1,1.34,1.68,1.62,1.62,0,0,1-1.76,1.35,1.48,1.48,0,0,1-1.34-1.68"
            id="path1530"/>
      <g id="g1606">
        <g id="g1558">
          <g id="g1544">
            <path class="cls-88"
                  d="M463,644.86l.42-12.19c-4.89-2.48-17,.07-22.07,11.32-6.37,14-12.38,21.51-20,28.09,11.06,2.06,20.42-.13,26.46-8.22,8.14-10.92,12.49-17.53,15.2-19Z"
                  id="path1532"/>
            <path class="cls-89"
                  d="M471.92,646.47l-13.19-5.55c-5.41,11-9.09,18.45-10.63,22.49-3,7.91-3.82,15.38-2.43,21.82,5.36-1.37,11.54-5.18,15.72-13s6.78-17.07,10.53-25.75Z"
                  id="path1534"/>
            <path class="cls-90"
                  d="M475.73,646.46l-14.14-2.16c-2.56,12-4.32,20.11-4.81,24.4-1,8.41,0,15.84,3,21.76,4.86-2.63,9.92-7.85,12.07-16.46s2.41-18.21,3.92-27.53Z"
                  id="path1536"/>
            <path class="cls-91"
                  d="M477.82,627.24l8.43-.06c4.93,2.44,10.1,13.64,4.12,24.46-7.45,13.48-9.84,22.77-10.56,32.82-8.25-7.64-12.1-16.45-9.22-26.13,3.89-13.05,7.67-28.05,7.23-31.09Z"
                  id="path1538"/>
            <path class="cls-92"
                  d="M481.59,621.36l-13.48-4.78c-4.77,11.3-8,18.93-9.32,23-2.54,8.09-2.94,15.57-1.18,21.93,5.27-1.66,11.95-5.11,15.67-13.18s5.07-18.14,8.31-27Z"
                  id="path1540"/>
            <path class="cls-93"
                  d="M472.43,612l-3-18.31c-3.1-.85-7.22,6.4-11.25,10.62a26,26,0,0,0-2.8,3.08,26.25,26.25,0,0,0-3.82,8.89c-3.37,15-8.29,22.85-14.41,30.85,11.25-.23,20-4.28,24.23-13.43,5.75-12.35,8.66-19.7,11-21.7Z"
                  id="path1542"/>
          </g>
          <g id="g1556">
            <path class="cls-58"
                  d="M614,650.81c3.58.15,8,2.2,20.82,13.33,5.61,11.44,11.26,22.94,19,32.86a30.3,30.3,0,0,0,6.85,3.67c2.2.73,18.39.19,18.79-.49,5-4.56,12.74-1.31,10.17,3.51,2,1.89-2.4,8.81-5.93,5.94-3.25-2.64-14.53-.15-18.3-1.51,1.43,3.38,11.62,5.58,18.75,6.1,6.52.28,6.09,6.78,3.4,11.76-3.06,1.94-.54-.51-1.65.91-2.92,4.33-9.16,3.76-9.37-.46S661.18,716.36,658.9,713c2.79,6.64,9.22,12.83,12.42,19.33,3.43,3.44,5.51,4.13,1.07,11.07-4.91-.56-5.2-1.86-8.23,1-6.73-.74-7.82-2.73-6.73-8.06,1.15-5.62-3.55-15.79-5.12-18.66-1.44-2.65-1.8-5.4-3.2-7.07-2.44-2.88-14.07-8.66-17-7.07-5.48,2.92-9.67,1.16-10.36-4.15,1.77-1.37.45-8.91,4.23-9.22,3.1-.26,4.95.69,7.79,3,4.49,3.66,6.79,5.61,8.27,5.2,3.5-1-6.34-5.78-15.29-17.51-12.4-16.26-13.24-24.51-12.67-30.08Z"
                  id="path1546"/>
            <path class="cls-59"
                  d="M689,706.7c4.49-2.63,7.08-2.52,8.81-.57,1,1.08,2.18.52,1.47-1.17-3-7.05-7.75-7.93-12-4.63-1.2,1.11-2.16,2.06-3.12,3,.71,1.06,4.29,2.55,4.86,3.36Z"
                  id="path1548"/>
            <path class="cls-60"
                  d="M624.67,700.37c-4.76-3.23-9.23-3.87-11.68-2-1.34,1-2.67.28-1.48-1.38,4.93-7,10.73-7.3,15.1-3.38,1.18,1.28,2.13,2.38,3.07,3.47-1.5,1.64-4.8,3.49-5,3.34Z"
                  id="path1550"/>
            <path class="cls-61"
                  d="M662.22,740.2c2.92,5.77,4.46,9.73,3.2,12.83-.74,1.81.09,3.48,1.93,1.9,7.45-6.39,7.47-13.71,2.7-18.69a44,44,0,0,0-4.79-3.93c-2,1.81-3.18,7.6-3,7.89Z"
                  id="path1552"/>
            <path class="cls-62"
                  d="M680.81,725c4.42,1.84,6,4.16,5.78,7.22-.08,1.68,1,2.3,1.65.35,5.41-12.55-.2-14.91-8.32-14.45-.46,2.18.69,6.8.89,6.88Z"
                  id="path1554"/>
          </g>
        </g>
        <g id="g1570">
          <path class="cls-63" d="M642.68,697c2.91-1.69,3.09-3.57,2.32-4.83-1.62-2.69-3.24-1.39-6.3,1.08"
                id="path1560"/>
          <path class="cls-63" d="M638.91,692.94c2.91-1.7,3.09-3.59,2.33-4.85-1.63-2.67-3.25-1.39-6.31,1.09"
                id="path1562"/>
          <path class="cls-64" d="M634.66,689c3.22-2.2,3.41-4.65,2.57-6.3-1.78-3.48-3.58-1.81-6.94,1.41" id="path1564"/>
          <path class="cls-65" d="M630.1,684.14c3.41-2.5,3.61-5.26,2.72-7.12-1.9-3.94-3.8-2-7.37,1.59" id="path1566"/>
          <path class="cls-66" d="M625.29,678.94c3.18-2.64,4.17-5.26,2.73-7.56-2.27-3.61-3.81-2.16-7.38,1.69"
                id="path1568"/>
        </g>
        <g id="g1584">
          <path class="cls-88"
                d="M608.46,644.87,608,632.68c4.91-2.48,17,.07,22.09,11.32,6.35,14,12.37,21.51,20,28.08-11.06,2.07-20.42-.11-26.46-8.21-8.14-10.92-12.5-17.53-15.19-19Z"
                id="path1572"/>
          <path class="cls-89"
                d="M599.46,646.46l13.19-5.54c5.41,11,9.09,18.44,10.63,22.48,3,7.92,3.82,15.38,2.43,21.83-5.35-1.37-11.54-5.19-15.72-13s-6.78-17.07-10.53-25.74Z"
                id="path1574"/>
          <path class="cls-90"
                d="M595.67,646.46l14.14-2.16c2.56,12,4.32,20.11,4.82,24.39,1,8.42,0,15.85-3,21.76-4.87-2.63-9.94-7.84-12.08-16.46s-2.41-18.2-3.92-27.53Z"
                id="path1576"/>
          <path class="cls-91"
                d="M593.56,627.23l-8.44-.06c-4.92,2.44-10.09,13.64-4.12,24.46,7.45,13.49,9.84,22.78,10.56,32.83,8.26-7.64,12.11-16.45,9.23-26.13-3.89-13.05-7.68-28.05-7.23-31.1Z"
                id="path1578"/>
          <path class="cls-92"
                d="M589.81,621.37l13.48-4.78c4.78,11.29,8,18.93,9.33,23,2.55,8.09,2.93,15.57,1.17,21.93-5.27-1.67-11.94-5.11-15.67-13.18s-5.07-18.15-8.31-27Z"
                id="path1580"/>
          <path class="cls-93"
                d="M599,612l3-18.32c3.11-.84,7.22,6.4,11.24,10.62a25.45,25.45,0,0,1,2.82,3.09,26.08,26.08,0,0,1,3.82,8.89c3.37,15,8.28,22.84,14.4,30.84-11.24-.23-20-4.27-24.22-13.43-5.75-12.34-8.66-19.7-11-21.69Z"
                id="path1582"/>
        </g>
        <path class="cls-94"
              d="M610.7,469.31V590.57a80.5,80.5,0,0,1-22,55.64,73,73,0,0,1-53,23.11h0a73,73,0,0,1-53-23.11,80.49,80.49,0,0,1-22-55.64V469.31Z"
              id="path1586"/>
        <g id="g1602">
          <path class="cls-95"
                d="M610.69,543.69v31.25H551.32v92.65a71.44,71.44,0,0,1-15.63,1.73h0a71.35,71.35,0,0,1-15.62-1.73V574.94H460.7V543.69h59.37V469.31h31.25v74.38Z"
                id="path1588"/>
          <g id="g1600">
            <path class="cls-96"
                  d="M509.94,487.05V531c-9.58,2.57-32.89,11.86-34.11-8.5-.56-9.42,11.69-15.62,15-7.31,1.55,3.94-.14,6.72-2.44,7.63-2.49,1-5-1-4.3-4-9.92,5.18,8.86,16.18,17.33,1.87,2.47-4.18-4.16-8.52-4.17-11.61s6.52-7.72,4.17-11.61c-8.58-14.24-27.25-3.32-17.33,1.86-.66-3,1.81-5,4.3-4,2.3.91,4,3.69,2.44,7.63-3.3,8.31-15.55,2.11-15-7.31,1.22-20.36,24.53-11.07,34.11-8.5Z"
                  id="path1590"/>
            <g id="g1598">
              <path class="cls-97"
                    d="M561.46,487.05V531c9.58,2.57,32.89,11.86,34.11-8.5.57-9.42-11.68-15.62-15-7.31-1.57,3.94.13,6.72,2.44,7.63,2.48,1,5-1,4.3-4,9.91,5.18-8.86,16.18-17.34,1.87-2.47-4.18,4.17-8.52,4.18-11.61s-6.53-7.72-4.18-11.61c8.58-14.24,27.25-3.32,17.34,1.86.66-3-1.82-5-4.3-4-2.31.91-4,3.69-2.44,7.63,3.3,8.31,15.55,2.11,15-7.31-1.21-20.36-24.53-11.07-34.11-8.5Z"
                    id="path1592"/>
              <path class="cls-97"
                    d="M509.94,631.61V587.67c-9.58-2.57-32.89-11.86-34.11,8.51-.56,9.41,11.69,15.62,15,7.31,1.55-3.94-.14-6.73-2.44-7.63-2.49-1-5,1-4.3,4-9.92-5.18,8.86-16.18,17.33-1.87,2.47,4.17-4.16,8.52-4.17,11.61s6.52,7.72,4.17,11.61c-8.58,14.25-27.25,3.31-17.33-1.86-.66,3,1.81,5,4.3,4,2.3-.9,4-3.69,2.44-7.63-3.3-8.31-15.55-2.1-15,7.31,1.22,20.37,24.53,11.08,34.11,8.51Z"
                    id="path1594"/>
              <path class="cls-97"
                    d="M561.46,631.61V587.67c9.58-2.57,32.89-11.86,34.11,8.51.57,9.41-11.68,15.62-15,7.31-1.57-3.94.13-6.73,2.44-7.63,2.48-1,5,1,4.3,4,9.91-5.18-8.86-16.18-17.34-1.87-2.47,4.17,4.17,8.52,4.18,11.61s-6.53,7.72-4.18,11.61c8.58,14.25,27.25,3.31,17.34-1.86.66,3-1.82,5-4.3,4-2.31-.9-4-3.69-2.44-7.63,3.3-8.31,15.55-2.1,15,7.31-1.21,20.37-24.53,11.08-34.11,8.51Z"
                    id="path1596"/>
            </g>
          </g>
        </g>
        <path class="cls-98"
              d="M610.7,469.31V590.57a80.5,80.5,0,0,1-22,55.64,73,73,0,0,1-53,23.11h0a73,73,0,0,1-53-23.11,80.49,80.49,0,0,1-22-55.64V469.31Z"
              id="path1604"/>
      </g>
    </g>
  </g>
</svg>
